<svg width="100" height="115" viewBox="0 0 100 115" fill="none" xmlns="http://www.w3.org/2000/svg">
    <path d="M98.4386 83.2061L0.352034 87.1856L0 25.8163L45.1515 0L99.2348 25.102L98.4386 83.2061Z" fill="#A561FF"/>
    <path d="M0 25.8163L45.1515 0L45.2447 60.3403L0.463086 86.9943L0 25.8163Z" fill="#9A4DFF"/>
    <path opacity="0.36" d="M99.235 25.1016L58.459 54.202V114.61L98.4388 83.2057L99.235 25.1016Z" fill="#8F39FF"/>
    <path d="M0.351562 87.1853L48.2538 58.541L98.4381 83.2058L58.4594 114.89L0.351562 87.1853Z" fill="#8F39FF"/>
    <path opacity="0.4" d="M99.2345 25.1016L58.1064 54.5914V115L98.4383 83.2057L99.2345 25.1016Z" fill="#994CFF"/>
    <path d="M66.7598 21.4446C66.7653 21.3501 66.7742 21.2566 66.7764 21.162C66.7784 20.4733 66.8698 19.7878 67.0485 19.1228C67.1614 18.6725 67.3803 18.2559 67.687 17.9079C68.0957 17.4629 68.601 17.3383 69.1807 17.4351C69.7604 17.5319 70.2912 17.7966 70.7876 18.1026C71.3126 18.4238 71.8064 18.7937 72.2624 19.2073C72.8621 19.7525 73.3129 20.4166 73.7893 21.063C73.9564 21.2845 74.0401 21.5579 74.0259 21.8351C74.0092 22.6451 74.0259 23.4561 74.0259 24.2671V24.3784C73.9082 24.2048 73.8038 24.0446 73.6927 23.8933C73.1742 23.1366 72.553 22.4559 71.8471 21.8707C71.5483 21.6282 71.2263 21.4112 70.9053 21.2032C70.6515 21.0293 70.3598 20.9187 70.0547 20.8806C69.9143 20.8584 69.7704 20.8782 69.6412 20.9376C69.512 20.997 69.4032 21.0932 69.3284 21.2143C69.1689 21.4607 69.0728 21.7428 69.0485 22.0354C69.0051 22.3928 68.981 22.7523 68.9764 23.1123C68.9697 25.0407 68.9697 26.9724 68.9764 28.9075C68.9699 29.5958 69.0776 30.2804 69.2951 30.9334C69.5685 31.7209 70.037 32.426 70.6566 32.9827C71.1108 33.4035 71.6142 33.7677 72.1558 34.0674C72.5553 34.3095 73.0009 34.4656 73.464 34.5258C73.627 34.5311 73.7902 34.5259 73.9526 34.5102C73.9749 34.5089 73.9972 34.5063 74.0192 34.5024V37.5062C73.8527 37.514 73.6861 37.5318 73.5184 37.5285C72.982 37.5162 72.51 37.306 72.0603 37.0356C71.4929 36.6918 70.9533 36.3038 70.4467 35.8753C69.8082 35.3443 69.2369 34.7372 68.7454 34.0674C67.9714 33.0023 67.4206 31.7913 67.1262 30.5073C66.9664 29.8327 66.8642 29.1456 66.8208 28.4536C66.8009 28.1298 66.792 27.805 66.7775 27.4812C66.7775 27.449 66.7686 27.4167 66.7653 27.3844L66.7598 21.4446Z" fill="#E094FF"/>
    <path d="M77.8417 30.2439L77.7562 30.1905C77.031 29.6754 76.3003 29.168 75.5829 28.6429C75.1564 28.3325 74.8055 27.9543 74.6467 27.4291C74.5172 26.9879 74.4909 26.5227 74.5701 26.0696C74.6378 25.6702 74.8899 25.3954 75.1909 25.1529C75.6417 24.788 76.086 24.4153 76.539 24.0526C76.8022 23.8412 76.8611 23.5642 76.8433 23.2472C76.8303 23.0159 76.7649 22.7907 76.6521 22.5885C76.5394 22.3863 76.3822 22.2125 76.1926 22.0801C75.839 21.7982 75.436 21.5851 75.0043 21.4515C74.9388 21.4315 74.8699 21.4237 74.8055 21.4026C74.7822 21.3948 74.7489 21.3648 74.7489 21.3447C74.7489 20.8686 74.7489 20.3924 74.7489 19.8984C74.8488 19.9307 74.9399 19.9529 75.0243 19.9885C76.0715 20.4336 76.9211 21.1133 77.4563 22.1391C77.6469 22.5223 77.7666 22.9369 77.8095 23.3629C77.8524 23.7299 77.8598 24.1002 77.8317 24.4687C77.8149 24.6881 77.7506 24.9013 77.6434 25.0934C77.5363 25.2855 77.3887 25.4519 77.2109 25.5812C76.8111 25.895 76.4013 26.1965 75.996 26.5046C75.8583 26.6092 75.7206 26.7127 75.5862 26.8217C75.56 26.8425 75.5384 26.8685 75.5226 26.8981C75.5069 26.9277 75.4975 26.9602 75.4949 26.9937C75.4922 27.0271 75.4965 27.0607 75.5075 27.0923C75.5184 27.124 75.5358 27.1531 75.5585 27.1777C75.6236 27.247 75.6958 27.3092 75.7739 27.3635C76.4358 27.8345 77.0987 28.3036 77.7628 28.7709C77.7916 28.788 77.8151 28.8127 77.8308 28.8424C77.8465 28.872 77.8537 28.9054 77.8517 28.9389C77.8517 29.3383 77.8517 29.7377 77.8517 30.1371C77.8472 30.1682 77.8439 30.1994 77.8417 30.2439Z" fill="#E094FF"/>
    <path opacity="0.57" d="M0 25.8163L58.1068 54.5918V115L0 87.2958V25.8163Z" fill="#8F39FF"/>
    <path d="M37.2283 86.0163C37.4671 85.153 35.9679 68.5129 35.9679 68.5129L16.405 68.6531L13.7842 54.6674L20.5994 39.7696L47.1086 30.5723L66.0985 40.0455L78.9861 56.1771L78.162 71.8037L67.4478 75.8522L54.7756 73.7384L37.2283 86.0163Z" fill="#E094FF"/>
    <path d="M36.7551 86.6848L36.9605 85.9417C37.1171 85.2741 36.3097 75.4193 35.7145 68.7909L16.1694 68.9366L13.4941 54.6339L20.396 39.548L20.5071 39.5091L47.1251 30.2695L47.2295 30.3218L66.2738 39.8228L66.3115 39.8707L79.2657 56.0847V56.1959L78.4317 72.005L67.4798 76.1391L54.8454 74.0354L36.7551 86.6848ZM36.222 68.2313L36.2442 68.486C36.3842 70.0314 37.4947 82.445 37.5258 85.4677L54.7088 73.4524L67.4198 75.5662L77.8931 71.6123L78.7016 56.2727L65.9195 40.2723L47.0896 30.877L20.8025 39.9997L14.0727 54.7085L16.6358 68.3804L36.222 68.2313Z" fill="white"/>
    <path d="M35.0657 69.8562L40.967 48.8127L27.0333 56.7339L17.2608 67.6444L16.8477 67.2729L26.6846 56.2944L26.7235 56.2722L41.1847 48.0517L45.68 32.0312L46.2142 32.1815L41.8454 47.7569L64.8187 40.3485L56.612 58.6296L35.0657 69.8562ZM41.6533 48.4222L35.9475 68.7692L56.1811 58.2202L63.7959 41.2552L41.7577 48.3632L41.6533 48.4222Z" fill="white"/>
    <path d="M65.3946 73.5086L56.5704 59.6242C56.094 64.2746 55.4677 71.0499 55.6021 71.5995L55.079 71.7864C54.8358 71.1422 55.7986 61.6624 56.0996 58.7698L56.1829 57.9766L65.8632 73.2071L65.3946 73.5086Z" fill="white"/>
    <path d="M74.7695 69.7539L56.2949 58.4094L75.8845 55.8184L75.9566 56.3702L57.9218 58.7554L75.0605 69.28L74.7695 69.7539Z" fill="white"/>
    <path d="M53.7476 57.7349L41.5075 48.3518L21.7402 40.4361L21.9457 39.9199L41.784 47.8634L41.8151 47.8867L54.0852 57.2932L53.7476 57.7349Z" fill="white"/>
    <path d="M34.9996 67.374L28.1477 56.7415L28.1399 56.7248L20.9404 41.4342L21.4424 41.1973L28.6352 56.4712L35.466 67.0714L34.9996 67.374Z" fill="white"/>
    <path d="M15.4068 54.4644L15.3323 55.0157L25.0715 56.3366L25.146 55.7853L15.4068 54.4644Z" fill="white"/>
    <path d="M38.5707 69.1624L38.4404 69.7031L50.3799 72.5902L50.5102 72.0495L38.5707 69.1624Z" fill="white"/>
    <path d="M41.7274 52.8502C44.2396 52.8502 46.2761 50.81 46.2761 48.2933C46.2761 45.7765 44.2396 43.7363 41.7274 43.7363C39.2152 43.7363 37.1787 45.7765 37.1787 48.2933C37.1787 50.81 39.2152 52.8502 41.7274 52.8502Z" fill="white"/>
    <path d="M56.577 63.9029C59.0892 63.9029 61.1257 61.8627 61.1257 59.346C61.1257 56.8293 59.0892 54.7891 56.577 54.7891C54.0648 54.7891 52.0283 56.8293 52.0283 59.346C52.0283 61.8627 54.0648 63.9029 56.577 63.9029Z" fill="white"/>
    <path d="M27.3036 60.6822C29.8157 60.6822 31.8523 58.642 31.8523 56.1253C31.8523 53.6086 29.8157 51.5684 27.3036 51.5684C24.7914 51.5684 22.7549 53.6086 22.7549 56.1253C22.7549 58.642 24.7914 60.6822 27.3036 60.6822Z" fill="white"/>
    <path d="M47.1083 35.1334C49.6204 35.1334 51.6569 33.0932 51.6569 30.5765C51.6569 28.0597 49.6204 26.0195 47.1083 26.0195C44.5961 26.0195 42.5596 28.0597 42.5596 30.5765C42.5596 33.0932 44.5961 35.1334 47.1083 35.1334Z" fill="white"/>
    <path d="M64.1786 44.2799C66.6907 44.2799 68.7272 42.2397 68.7272 39.7229C68.7272 37.2062 66.6907 35.166 64.1786 35.166C61.6664 35.166 59.6299 37.2062 59.6299 39.7229C59.6299 42.2397 61.6664 44.2799 64.1786 44.2799Z" fill="white"/>
    <path d="M78.7274 60.4166C81.2396 60.4166 83.2761 58.3764 83.2761 55.8597C83.2761 53.3429 81.2396 51.3027 78.7274 51.3027C76.2152 51.3027 74.1787 53.3429 74.1787 55.8597C74.1787 58.3764 76.2152 60.4166 78.7274 60.4166Z" fill="white"/>
    <path d="M78.1825 75.7701C80.6946 75.7701 82.7312 73.7299 82.7312 71.2132C82.7312 68.6965 80.6946 66.6562 78.1825 66.6562C75.6703 66.6562 73.6338 68.6965 73.6338 71.2132C73.6338 73.7299 75.6703 75.7701 78.1825 75.7701Z" fill="white"/>
    <path d="M66.8163 79.9244C69.3284 79.9244 71.3649 77.8842 71.3649 75.3675C71.3649 72.8508 69.3284 70.8105 66.8163 70.8105C64.3041 70.8105 62.2676 72.8508 62.2676 75.3675C62.2676 77.8842 64.3041 79.9244 66.8163 79.9244Z" fill="white"/>
    <path d="M20.4374 44.6861C22.9495 44.6861 24.986 42.6459 24.986 40.1292C24.986 37.6125 22.9495 35.5723 20.4374 35.5723C17.9252 35.5723 15.8887 37.6125 15.8887 40.1292C15.8887 42.6459 17.9252 44.6861 20.4374 44.6861Z" fill="white"/>
    <path d="M35.9676 73.0689C38.4798 73.0689 40.5163 71.0287 40.5163 68.512C40.5163 65.9953 38.4798 63.9551 35.9676 63.9551C33.4555 63.9551 31.4189 65.9953 31.4189 68.512C31.4189 71.0287 33.4555 73.0689 35.9676 73.0689Z" fill="white"/>
    <path d="M53.37 77.4791C55.8821 77.4791 57.9187 75.4389 57.9187 72.9222C57.9187 70.4054 55.8821 68.3652 53.37 68.3652C50.8578 68.3652 48.8213 70.4054 48.8213 72.9222C48.8213 75.4389 50.8578 77.4791 53.37 77.4791Z" fill="white"/>
    <path d="M38.6473 89.9381C41.1595 89.9381 43.196 87.8979 43.196 85.3811C43.196 82.8644 41.1595 80.8242 38.6473 80.8242C36.1352 80.8242 34.0986 82.8644 34.0986 85.3811C34.0986 87.8979 36.1352 89.9381 38.6473 89.9381Z" fill="white"/>
    <path d="M16.9637 73.5885C19.4759 73.5885 21.5124 71.5482 21.5124 69.0315C21.5124 66.5148 19.4759 64.4746 16.9637 64.4746C14.4516 64.4746 12.415 66.5148 12.415 69.0315C12.415 71.5482 14.4516 73.5885 16.9637 73.5885Z" fill="white"/>
    <path d="M13.7831 59.2291C16.2952 59.2291 18.3317 57.1889 18.3317 54.6722C18.3317 52.1554 16.2952 50.1152 13.7831 50.1152C11.2709 50.1152 9.23438 52.1554 9.23438 54.6722C9.23438 57.1889 11.2709 59.2291 13.7831 59.2291Z" fill="white"/>
    </svg>
    