<svg width="1127" height="59" viewBox="0 0 1127 59" fill="none" xmlns="http://www.w3.org/2000/svg">
<rect x="0.5" y="0.5" width="269" height="35" rx="3.5" stroke="#707070"/>
<path d="M42.952 23.091C42.3453 23.091 41.7993 22.987 41.314 22.779C40.8287 22.5623 40.4473 22.259 40.17 21.869C39.8927 21.479 39.754 21.024 39.754 20.504H41.34C41.3747 20.894 41.5263 21.2147 41.795 21.466C42.0723 21.7173 42.458 21.843 42.952 21.843C43.4633 21.843 43.862 21.7217 44.148 21.479C44.434 21.2277 44.577 20.907 44.577 20.517C44.577 20.2137 44.486 19.9667 44.304 19.776C44.1307 19.5853 43.9097 19.438 43.641 19.334C43.381 19.23 43.017 19.1173 42.549 18.996C41.9597 18.84 41.4787 18.684 41.106 18.528C40.742 18.3633 40.43 18.112 40.17 17.774C39.91 17.436 39.78 16.9853 39.78 16.422C39.78 15.902 39.91 15.447 40.17 15.057C40.43 14.667 40.794 14.368 41.262 14.16C41.73 13.952 42.2717 13.848 42.887 13.848C43.7623 13.848 44.4773 14.069 45.032 14.511C45.5953 14.9443 45.9073 15.5423 45.968 16.305H44.33C44.304 15.9757 44.148 15.694 43.862 15.46C43.576 15.226 43.199 15.109 42.731 15.109C42.3063 15.109 41.9597 15.2173 41.691 15.434C41.4223 15.6507 41.288 15.9627 41.288 16.37C41.288 16.6473 41.3703 16.877 41.535 17.059C41.7083 17.2323 41.925 17.371 42.185 17.475C42.445 17.579 42.8003 17.6917 43.251 17.813C43.849 17.9777 44.3343 18.1423 44.707 18.307C45.0883 18.4717 45.409 18.7273 45.669 19.074C45.9377 19.412 46.072 19.867 46.072 20.439C46.072 20.8983 45.9463 21.3317 45.695 21.739C45.4523 22.1463 45.0927 22.4757 44.616 22.727C44.148 22.9697 43.5933 23.091 42.952 23.091ZM54.3857 19.243C54.3857 19.5117 54.3684 19.7543 54.3337 19.971H48.8607C48.904 20.543 49.1164 21.0023 49.4977 21.349C49.879 21.6957 50.347 21.869 50.9017 21.869C51.699 21.869 52.2624 21.5353 52.5917 20.868H54.1907C53.974 21.5267 53.5797 22.0683 53.0077 22.493C52.4444 22.909 51.7424 23.117 50.9017 23.117C50.217 23.117 49.6017 22.9653 49.0557 22.662C48.5184 22.35 48.0937 21.9167 47.7817 21.362C47.4784 20.7987 47.3267 20.1487 47.3267 19.412C47.3267 18.6753 47.474 18.0297 47.7687 17.475C48.072 16.9117 48.4924 16.4783 49.0297 16.175C49.5757 15.8717 50.1997 15.72 50.9017 15.72C51.5777 15.72 52.18 15.8673 52.7087 16.162C53.2374 16.4567 53.649 16.8727 53.9437 17.41C54.2384 17.9387 54.3857 18.5497 54.3857 19.243ZM52.8387 18.775C52.83 18.229 52.635 17.7913 52.2537 17.462C51.8724 17.1327 51.4 16.968 50.8367 16.968C50.3254 16.968 49.8877 17.1327 49.5237 17.462C49.1597 17.7827 48.943 18.2203 48.8737 18.775H52.8387ZM55.3501 19.386C55.3501 18.6667 55.4975 18.0297 55.7921 17.475C56.0955 16.9203 56.5028 16.4913 57.0141 16.188C57.5341 15.876 58.1061 15.72 58.7301 15.72C59.2935 15.72 59.7831 15.8327 60.1991 16.058C60.6238 16.2747 60.9618 16.5477 61.2131 16.877V15.837H62.7081V23H61.2131V21.934C60.9618 22.272 60.6195 22.5537 60.1861 22.779C59.7528 23.0043 59.2588 23.117 58.7041 23.117C58.0888 23.117 57.5255 22.961 57.0141 22.649C56.5028 22.3283 56.0955 21.8863 55.7921 21.323C55.4975 20.751 55.3501 20.1053 55.3501 19.386ZM61.2131 19.412C61.2131 18.918 61.1091 18.489 60.9011 18.125C60.7018 17.761 60.4375 17.4837 60.1081 17.293C59.7788 17.1023 59.4235 17.007 59.0421 17.007C58.6608 17.007 58.3055 17.1023 57.9761 17.293C57.6468 17.475 57.3781 17.748 57.1701 18.112C56.9708 18.4673 56.8711 18.892 56.8711 19.386C56.8711 19.88 56.9708 20.3133 57.1701 20.686C57.3781 21.0587 57.6468 21.3447 57.9761 21.544C58.3141 21.7347 58.6695 21.83 59.0421 21.83C59.4235 21.83 59.7788 21.7347 60.1081 21.544C60.4375 21.3533 60.7018 21.076 60.9011 20.712C61.1091 20.3393 61.2131 19.906 61.2131 19.412ZM66.1367 16.877C66.3534 16.513 66.6394 16.2313 66.9947 16.032C67.3587 15.824 67.7877 15.72 68.2817 15.72V17.254H67.9047C67.324 17.254 66.882 17.4013 66.5787 17.696C66.284 17.9907 66.1367 18.502 66.1367 19.23V23H64.6547V15.837H66.1367V16.877ZM69.1499 19.412C69.1499 18.6753 69.2973 18.0297 69.5919 17.475C69.8953 16.9117 70.3113 16.4783 70.8399 16.175C71.3686 15.8717 71.9753 15.72 72.6599 15.72C73.5266 15.72 74.2416 15.928 74.8049 16.344C75.3769 16.7513 75.7626 17.3363 75.9619 18.099H74.3629C74.2329 17.7437 74.0249 17.4663 73.7389 17.267C73.4529 17.0677 73.0933 16.968 72.6599 16.968C72.0533 16.968 71.5679 17.1847 71.2039 17.618C70.8486 18.0427 70.6709 18.6407 70.6709 19.412C70.6709 20.1833 70.8486 20.7857 71.2039 21.219C71.5679 21.6523 72.0533 21.869 72.6599 21.869C73.5179 21.869 74.0856 21.492 74.3629 20.738H75.9619C75.7539 21.466 75.3639 22.0467 74.7919 22.48C74.2199 22.9047 73.5093 23.117 72.6599 23.117C71.9753 23.117 71.3686 22.9653 70.8399 22.662C70.3113 22.35 69.8953 21.9167 69.5919 21.362C69.2973 20.7987 69.1499 20.1487 69.1499 19.412ZM81.1439 15.72C81.6899 15.72 82.1752 15.837 82.5999 16.071C83.0332 16.305 83.3712 16.6517 83.6139 17.111C83.8652 17.5703 83.9909 18.125 83.9909 18.775V23H82.5219V18.996C82.5219 18.3547 82.3615 17.865 82.0409 17.527C81.7202 17.1803 81.2825 17.007 80.7279 17.007C80.1732 17.007 79.7312 17.1803 79.4019 17.527C79.0812 17.865 78.9209 18.3547 78.9209 18.996V23H77.4389V13.38H78.9209V16.669C79.1722 16.3657 79.4885 16.1317 79.8699 15.967C80.2599 15.8023 80.6845 15.72 81.1439 15.72ZM90.7402 21.804H93.7952V23H89.2582V13.965H90.7402V21.804ZM98.1416 23.117C97.4656 23.117 96.8546 22.9653 96.3086 22.662C95.7626 22.35 95.3336 21.9167 95.0216 21.362C94.7096 20.7987 94.5536 20.1487 94.5536 19.412C94.5536 18.684 94.7139 18.0383 95.0346 17.475C95.3552 16.9117 95.7929 16.4783 96.3476 16.175C96.9022 15.8717 97.5219 15.72 98.2066 15.72C98.8912 15.72 99.5109 15.8717 100.066 16.175C100.62 16.4783 101.058 16.9117 101.379 17.475C101.699 18.0383 101.86 18.684 101.86 19.412C101.86 20.14 101.695 20.7857 101.366 21.349C101.036 21.9123 100.586 22.35 100.014 22.662C99.4502 22.9653 98.8262 23.117 98.1416 23.117ZM98.1416 21.83C98.5229 21.83 98.8782 21.739 99.2076 21.557C99.5456 21.375 99.8186 21.102 100.027 20.738C100.235 20.374 100.339 19.932 100.339 19.412C100.339 18.892 100.239 18.4543 100.04 18.099C99.8402 17.735 99.5759 17.462 99.2466 17.28C98.9172 17.098 98.5619 17.007 98.1806 17.007C97.7992 17.007 97.4439 17.098 97.1146 17.28C96.7939 17.462 96.5382 17.735 96.3476 18.099C96.1569 18.4543 96.0616 18.892 96.0616 19.412C96.0616 20.1833 96.2566 20.7813 96.6466 21.206C97.0452 21.622 97.5436 21.83 98.1416 21.83ZM102.831 19.412C102.831 18.6753 102.978 18.0297 103.273 17.475C103.576 16.9117 103.992 16.4783 104.521 16.175C105.049 15.8717 105.656 15.72 106.341 15.72C107.207 15.72 107.922 15.928 108.486 16.344C109.058 16.7513 109.443 17.3363 109.643 18.099H108.044C107.914 17.7437 107.706 17.4663 107.42 17.267C107.134 17.0677 106.774 16.968 106.341 16.968C105.734 16.968 105.249 17.1847 104.885 17.618C104.529 18.0427 104.352 18.6407 104.352 19.412C104.352 20.1833 104.529 20.7857 104.885 21.219C105.249 21.6523 105.734 21.869 106.341 21.869C107.199 21.869 107.766 21.492 108.044 20.738H109.643C109.435 21.466 109.045 22.0467 108.473 22.48C107.901 22.9047 107.19 23.117 106.341 23.117C105.656 23.117 105.049 22.9653 104.521 22.662C103.992 22.35 103.576 21.9167 103.273 21.362C102.978 20.7987 102.831 20.1487 102.831 19.412ZM110.626 19.386C110.626 18.6667 110.773 18.0297 111.068 17.475C111.371 16.9203 111.778 16.4913 112.29 16.188C112.81 15.876 113.382 15.72 114.006 15.72C114.569 15.72 115.059 15.8327 115.475 16.058C115.899 16.2747 116.237 16.5477 116.489 16.877V15.837H117.984V23H116.489V21.934C116.237 22.272 115.895 22.5537 115.462 22.779C115.028 23.0043 114.534 23.117 113.98 23.117C113.364 23.117 112.801 22.961 112.29 22.649C111.778 22.3283 111.371 21.8863 111.068 21.323C110.773 20.751 110.626 20.1053 110.626 19.386ZM116.489 19.412C116.489 18.918 116.385 18.489 116.177 18.125C115.977 17.761 115.713 17.4837 115.384 17.293C115.054 17.1023 114.699 17.007 114.318 17.007C113.936 17.007 113.581 17.1023 113.252 17.293C112.922 17.475 112.654 17.748 112.446 18.112C112.246 18.4673 112.147 18.892 112.147 19.386C112.147 19.88 112.246 20.3133 112.446 20.686C112.654 21.0587 112.922 21.3447 113.252 21.544C113.59 21.7347 113.945 21.83 114.318 21.83C114.699 21.83 115.054 21.7347 115.384 21.544C115.713 21.3533 115.977 21.076 116.177 20.712C116.385 20.3393 116.489 19.906 116.489 19.412ZM121.659 17.046V21.011C121.659 21.2797 121.72 21.4747 121.841 21.596C121.971 21.7087 122.188 21.765 122.491 21.765H123.401V23H122.231C121.564 23 121.052 22.844 120.697 22.532C120.342 22.22 120.164 21.713 120.164 21.011V17.046H119.319V15.837H120.164V14.056H121.659V15.837H123.401V17.046H121.659ZM125.521 14.888C125.252 14.888 125.027 14.797 124.845 14.615C124.663 14.433 124.572 14.2077 124.572 13.939C124.572 13.6703 124.663 13.445 124.845 13.263C125.027 13.081 125.252 12.99 125.521 12.99C125.781 12.99 126.002 13.081 126.184 13.263C126.366 13.445 126.457 13.6703 126.457 13.939C126.457 14.2077 126.366 14.433 126.184 14.615C126.002 14.797 125.781 14.888 125.521 14.888ZM126.249 15.837V23H124.767V15.837H126.249ZM131.302 23.117C130.626 23.117 130.015 22.9653 129.469 22.662C128.923 22.35 128.494 21.9167 128.182 21.362C127.87 20.7987 127.714 20.1487 127.714 19.412C127.714 18.684 127.874 18.0383 128.195 17.475C128.515 16.9117 128.953 16.4783 129.508 16.175C130.062 15.8717 130.682 15.72 131.367 15.72C132.051 15.72 132.671 15.8717 133.226 16.175C133.78 16.4783 134.218 16.9117 134.539 17.475C134.859 18.0383 135.02 18.684 135.02 19.412C135.02 20.14 134.855 20.7857 134.526 21.349C134.196 21.9123 133.746 22.35 133.174 22.662C132.61 22.9653 131.986 23.117 131.302 23.117ZM131.302 21.83C131.683 21.83 132.038 21.739 132.368 21.557C132.706 21.375 132.979 21.102 133.187 20.738C133.395 20.374 133.499 19.932 133.499 19.412C133.499 18.892 133.399 18.4543 133.2 18.099C133 17.735 132.736 17.462 132.407 17.28C132.077 17.098 131.722 17.007 131.341 17.007C130.959 17.007 130.604 17.098 130.275 17.28C129.954 17.462 129.698 17.735 129.508 18.099C129.317 18.4543 129.222 18.892 129.222 19.412C129.222 20.1833 129.417 20.7813 129.807 21.206C130.205 21.622 130.704 21.83 131.302 21.83ZM140.099 15.72C140.662 15.72 141.165 15.837 141.607 16.071C142.057 16.305 142.408 16.6517 142.66 17.111C142.911 17.5703 143.037 18.125 143.037 18.775V23H141.568V18.996C141.568 18.3547 141.407 17.865 141.087 17.527C140.766 17.1803 140.328 17.007 139.774 17.007C139.219 17.007 138.777 17.1803 138.448 17.527C138.127 17.865 137.967 18.3547 137.967 18.996V23H136.485V15.837H137.967V16.656C138.209 16.3613 138.517 16.1317 138.89 15.967C139.271 15.8023 139.674 15.72 140.099 15.72Z" fill="#707070"/>
<path d="M13.171 48.632C13.171 49.0207 13.0793 49.3873 12.896 49.732C12.7127 50.0767 12.4193 50.359 12.016 50.579C11.6127 50.7917 11.0957 50.898 10.465 50.898H9.079V54H7.825V46.355H10.465C11.0517 46.355 11.5467 46.4577 11.95 46.663C12.3607 46.861 12.665 47.1323 12.863 47.477C13.0683 47.8217 13.171 48.2067 13.171 48.632ZM10.465 49.875C10.9417 49.875 11.2973 49.7687 11.532 49.556C11.7667 49.336 11.884 49.028 11.884 48.632C11.884 47.796 11.411 47.378 10.465 47.378H9.079V49.875H10.465ZM16.996 54.099C16.424 54.099 15.907 53.9707 15.445 53.714C14.983 53.45 14.62 53.0833 14.356 52.614C14.092 52.1373 13.96 51.5873 13.96 50.964C13.96 50.348 14.0957 49.8017 14.367 49.325C14.6383 48.8483 15.0087 48.4817 15.478 48.225C15.9473 47.9683 16.4717 47.84 17.051 47.84C17.6303 47.84 18.1547 47.9683 18.624 48.225C19.0933 48.4817 19.4637 48.8483 19.735 49.325C20.0063 49.8017 20.142 50.348 20.142 50.964C20.142 51.58 20.0027 52.1263 19.724 52.603C19.4453 53.0797 19.064 53.45 18.58 53.714C18.1033 53.9707 17.5753 54.099 16.996 54.099ZM16.996 53.01C17.3187 53.01 17.6193 52.933 17.898 52.779C18.184 52.625 18.415 52.394 18.591 52.086C18.767 51.778 18.855 51.404 18.855 50.964C18.855 50.524 18.7707 50.1537 18.602 49.853C18.4333 49.545 18.2097 49.314 17.931 49.16C17.6523 49.006 17.3517 48.929 17.029 48.929C16.7063 48.929 16.4057 49.006 16.127 49.16C15.8557 49.314 15.6393 49.545 15.478 49.853C15.3167 50.1537 15.236 50.524 15.236 50.964C15.236 51.6167 15.401 52.1227 15.731 52.482C16.0683 52.834 16.49 53.01 16.996 53.01ZM29.5216 47.939L27.6406 54H26.3206L25.0996 49.523L23.8786 54H22.5586L20.6666 47.939H21.9426L23.2076 52.812L24.4946 47.939H25.8036L27.0356 52.79L28.2896 47.939H29.5216ZM36.0138 50.821C36.0138 51.0483 35.9991 51.2537 35.9698 51.437H31.3388C31.3755 51.921 31.5551 52.3097 31.8778 52.603C32.2005 52.8963 32.5965 53.043 33.0658 53.043C33.7405 53.043 34.2171 52.7607 34.4958 52.196H35.8488C35.6655 52.7533 35.3318 53.2117 34.8478 53.571C34.3711 53.923 33.7771 54.099 33.0658 54.099C32.4865 54.099 31.9658 53.9707 31.5038 53.714C31.0491 53.45 30.6898 53.0833 30.4258 52.614C30.1691 52.1373 30.0408 51.5873 30.0408 50.964C30.0408 50.3407 30.1655 49.7943 30.4148 49.325C30.6715 48.8483 31.0271 48.4817 31.4818 48.225C31.9438 47.9683 32.4718 47.84 33.0658 47.84C33.6378 47.84 34.1475 47.9647 34.5948 48.214C35.0421 48.4633 35.3905 48.8153 35.6398 49.27C35.8891 49.7173 36.0138 50.2343 36.0138 50.821ZM34.7048 50.425C34.6975 49.963 34.5325 49.5927 34.2098 49.314C33.8871 49.0353 33.4875 48.896 33.0108 48.896C32.5781 48.896 32.2078 49.0353 31.8998 49.314C31.5918 49.5853 31.4085 49.9557 31.3498 50.425H34.7048ZM38.5019 48.819C38.6852 48.511 38.9272 48.2727 39.2279 48.104C39.5359 47.928 39.8989 47.84 40.3169 47.84V49.138H39.9979C39.5065 49.138 39.1325 49.2627 38.8759 49.512C38.6265 49.7613 38.5019 50.194 38.5019 50.81V54H37.2479V47.939H38.5019V48.819ZM47.0245 50.821C47.0245 51.0483 47.0099 51.2537 46.9805 51.437H42.3495C42.3862 51.921 42.5659 52.3097 42.8885 52.603C43.2112 52.8963 43.6072 53.043 44.0765 53.043C44.7512 53.043 45.2279 52.7607 45.5065 52.196H46.8595C46.6762 52.7533 46.3425 53.2117 45.8585 53.571C45.3819 53.923 44.7879 54.099 44.0765 54.099C43.4972 54.099 42.9765 53.9707 42.5145 53.714C42.0599 53.45 41.7005 53.0833 41.4365 52.614C41.1799 52.1373 41.0515 51.5873 41.0515 50.964C41.0515 50.3407 41.1762 49.7943 41.4255 49.325C41.6822 48.8483 42.0379 48.4817 42.4925 48.225C42.9545 47.9683 43.4825 47.84 44.0765 47.84C44.6485 47.84 45.1582 47.9647 45.6055 48.214C46.0529 48.4633 46.4012 48.8153 46.6505 49.27C46.8999 49.7173 47.0245 50.2343 47.0245 50.821ZM45.7155 50.425C45.7082 49.963 45.5432 49.5927 45.2205 49.314C44.8979 49.0353 44.4982 48.896 44.0215 48.896C43.5889 48.896 43.2185 49.0353 42.9105 49.314C42.6025 49.5853 42.4192 49.9557 42.3605 50.425H45.7155ZM47.8406 50.942C47.8406 50.3333 47.9653 49.7943 48.2146 49.325C48.4713 48.8557 48.8159 48.4927 49.2486 48.236C49.6886 47.972 50.1763 47.84 50.7116 47.84C51.1076 47.84 51.4963 47.928 51.8776 48.104C52.2663 48.2727 52.5743 48.5 52.8016 48.786V45.86H54.0666V54H52.8016V53.087C52.5963 53.3803 52.3103 53.6223 51.9436 53.813C51.5843 54.0037 51.1699 54.099 50.7006 54.099C50.1726 54.099 49.6886 53.967 49.2486 53.703C48.8159 53.4317 48.4713 53.0577 48.2146 52.581C47.9653 52.097 47.8406 51.5507 47.8406 50.942ZM52.8016 50.964C52.8016 50.546 52.7136 50.183 52.5376 49.875C52.3689 49.567 52.1453 49.3323 51.8666 49.171C51.5879 49.0097 51.2873 48.929 50.9646 48.929C50.6419 48.929 50.3413 49.0097 50.0626 49.171C49.7839 49.325 49.5566 49.556 49.3806 49.864C49.2119 50.1647 49.1276 50.524 49.1276 50.942C49.1276 51.36 49.2119 51.7267 49.3806 52.042C49.5566 52.3573 49.7839 52.5993 50.0626 52.768C50.3486 52.9293 50.6493 53.01 50.9646 53.01C51.2873 53.01 51.5879 52.9293 51.8666 52.768C52.1453 52.6067 52.3689 52.372 52.5376 52.064C52.7136 51.7487 52.8016 51.382 52.8016 50.964ZM59.8251 48.841C60.0378 48.5477 60.3274 48.3093 60.6941 48.126C61.0681 47.9353 61.4824 47.84 61.9371 47.84C62.4724 47.84 62.9564 47.9683 63.3891 48.225C63.8218 48.4817 64.1628 48.8483 64.4121 49.325C64.6614 49.7943 64.7861 50.3333 64.7861 50.942C64.7861 51.5507 64.6614 52.097 64.4121 52.581C64.1628 53.0577 63.8181 53.4317 63.3781 53.703C62.9454 53.967 62.4651 54.099 61.9371 54.099C61.4678 54.099 61.0498 54.0073 60.6831 53.824C60.3238 53.6407 60.0378 53.406 59.8251 53.12V54H58.5711V45.86H59.8251V48.841ZM63.5101 50.942C63.5101 50.524 63.4221 50.1647 63.2461 49.864C63.0774 49.556 62.8501 49.325 62.5641 49.171C62.2854 49.0097 61.9848 48.929 61.6621 48.929C61.3468 48.929 61.0461 49.0097 60.7601 49.171C60.4814 49.3323 60.2541 49.567 60.0781 49.875C59.9094 50.183 59.8251 50.546 59.8251 50.964C59.8251 51.382 59.9094 51.7487 60.0781 52.064C60.2541 52.372 60.4814 52.6067 60.7601 52.768C61.0461 52.9293 61.3468 53.01 61.6621 53.01C61.9848 53.01 62.2854 52.9293 62.5641 52.768C62.8501 52.5993 63.0774 52.3573 63.2461 52.042C63.4221 51.7267 63.5101 51.36 63.5101 50.942ZM71.4822 47.939L67.7642 56.849H66.4662L67.6982 53.901L65.3112 47.939H66.7082L68.4132 52.559L70.1842 47.939H71.4822Z" fill="black"/>
<path d="M74.8679 50.161C74.8679 49.413 75.0403 48.742 75.3849 48.148C75.7369 47.554 76.2099 47.092 76.8039 46.762C77.4053 46.4247 78.0616 46.256 78.7729 46.256C79.5869 46.256 80.3093 46.4577 80.9399 46.861C81.5779 47.257 82.0399 47.8217 82.3259 48.555H80.8189C80.6209 48.1517 80.3459 47.851 79.9939 47.653C79.6419 47.455 79.2349 47.356 78.7729 47.356C78.2669 47.356 77.8159 47.4697 77.4199 47.697C77.0239 47.9243 76.7123 48.2507 76.4849 48.676C76.2649 49.1013 76.1549 49.5963 76.1549 50.161C76.1549 50.7257 76.2649 51.2207 76.4849 51.646C76.7123 52.0713 77.0239 52.4013 77.4199 52.636C77.8159 52.8633 78.2669 52.977 78.7729 52.977C79.2349 52.977 79.6419 52.878 79.9939 52.68C80.3459 52.482 80.6209 52.1813 80.8189 51.778H82.3259C82.0399 52.5113 81.5779 53.076 80.9399 53.472C80.3093 53.868 79.5869 54.066 78.7729 54.066C78.0543 54.066 77.3979 53.901 76.8039 53.571C76.2099 53.2337 75.7369 52.768 75.3849 52.174C75.0403 51.58 74.8679 50.909 74.8679 50.161ZM83.3758 50.942C83.3758 50.3333 83.5004 49.7943 83.7498 49.325C84.0064 48.8557 84.3511 48.4927 84.7838 48.236C85.2238 47.972 85.7078 47.84 86.2358 47.84C86.7124 47.84 87.1268 47.9353 87.4788 48.126C87.8381 48.3093 88.1241 48.5403 88.3368 48.819V47.939H89.6018V54H88.3368V53.098C88.1241 53.384 87.8344 53.6223 87.4678 53.813C87.1011 54.0037 86.6831 54.099 86.2138 54.099C85.6931 54.099 85.2164 53.967 84.7838 53.703C84.3511 53.4317 84.0064 53.0577 83.7498 52.581C83.5004 52.097 83.3758 51.5507 83.3758 50.942ZM88.3368 50.964C88.3368 50.546 88.2488 50.183 88.0728 49.875C87.9041 49.567 87.6804 49.3323 87.4018 49.171C87.1231 49.0097 86.8224 48.929 86.4998 48.929C86.1771 48.929 85.8764 49.0097 85.5978 49.171C85.3191 49.325 85.0918 49.556 84.9158 49.864C84.7471 50.1647 84.6628 50.524 84.6628 50.942C84.6628 51.36 84.7471 51.7267 84.9158 52.042C85.0918 52.3573 85.3191 52.5993 85.5978 52.768C85.8838 52.9293 86.1844 53.01 86.4998 53.01C86.8224 53.01 87.1231 52.9293 87.4018 52.768C87.6804 52.6067 87.9041 52.372 88.0728 52.064C88.2488 51.7487 88.3368 51.382 88.3368 50.964ZM92.5028 48.819C92.6862 48.511 92.9282 48.2727 93.2288 48.104C93.5368 47.928 93.8998 47.84 94.3178 47.84V49.138H93.9988C93.5075 49.138 93.1335 49.2627 92.8768 49.512C92.6275 49.7613 92.5028 50.194 92.5028 50.81V54H91.2488V47.939H92.5028V48.819ZM101.026 50.821C101.026 51.0483 101.011 51.2537 100.982 51.437H96.3505C96.3872 51.921 96.5668 52.3097 96.8895 52.603C97.2122 52.8963 97.6082 53.043 98.0775 53.043C98.7522 53.043 99.2288 52.7607 99.5075 52.196H100.861C100.677 52.7533 100.344 53.2117 99.8595 53.571C99.3828 53.923 98.7888 54.099 98.0775 54.099C97.4982 54.099 96.9775 53.9707 96.5155 53.714C96.0608 53.45 95.7015 53.0833 95.4375 52.614C95.1808 52.1373 95.0525 51.5873 95.0525 50.964C95.0525 50.3407 95.1772 49.7943 95.4265 49.325C95.6832 48.8483 96.0388 48.4817 96.4935 48.225C96.9555 47.9683 97.4835 47.84 98.0775 47.84C98.6495 47.84 99.1592 47.9647 99.6065 48.214C100.054 48.4633 100.402 48.8153 100.652 49.27C100.901 49.7173 101.026 50.2343 101.026 50.821ZM99.7165 50.425C99.7092 49.963 99.5442 49.5927 99.2215 49.314C98.8988 49.0353 98.4992 48.896 98.0225 48.896C97.5898 48.896 97.2195 49.0353 96.9115 49.314C96.6035 49.5853 96.4202 49.9557 96.3615 50.425H99.7165ZM104.699 50.161C104.699 49.413 104.871 48.742 105.216 48.148C105.568 47.554 106.041 47.092 106.635 46.762C107.236 46.4247 107.893 46.256 108.604 46.256C109.418 46.256 110.14 46.4577 110.771 46.861C111.409 47.257 111.871 47.8217 112.157 48.555H110.65C110.452 48.1517 110.177 47.851 109.825 47.653C109.473 47.455 109.066 47.356 108.604 47.356C108.098 47.356 107.647 47.4697 107.251 47.697C106.855 47.9243 106.543 48.2507 106.316 48.676C106.096 49.1013 105.986 49.5963 105.986 50.161C105.986 50.7257 106.096 51.2207 106.316 51.646C106.543 52.0713 106.855 52.4013 107.251 52.636C107.647 52.8633 108.098 52.977 108.604 52.977C109.066 52.977 109.473 52.878 109.825 52.68C110.177 52.482 110.452 52.1813 110.65 51.778H112.157C111.871 52.5113 111.409 53.076 110.771 53.472C110.14 53.868 109.418 54.066 108.604 54.066C107.885 54.066 107.229 53.901 106.635 53.571C106.041 53.2337 105.568 52.768 105.216 52.174C104.871 51.58 104.699 50.909 104.699 50.161ZM116.254 54.099C115.682 54.099 115.165 53.9707 114.703 53.714C114.241 53.45 113.878 53.0833 113.614 52.614C113.35 52.1373 113.218 51.5873 113.218 50.964C113.218 50.348 113.353 49.8017 113.625 49.325C113.896 48.8483 114.266 48.4817 114.736 48.225C115.205 47.9683 115.729 47.84 116.309 47.84C116.888 47.84 117.412 47.9683 117.882 48.225C118.351 48.4817 118.721 48.8483 118.993 49.325C119.264 49.8017 119.4 50.348 119.4 50.964C119.4 51.58 119.26 52.1263 118.982 52.603C118.703 53.0797 118.322 53.45 117.838 53.714C117.361 53.9707 116.833 54.099 116.254 54.099ZM116.254 53.01C116.576 53.01 116.877 52.933 117.156 52.779C117.442 52.625 117.673 52.394 117.849 52.086C118.025 51.778 118.113 51.404 118.113 50.964C118.113 50.524 118.028 50.1537 117.86 49.853C117.691 49.545 117.467 49.314 117.189 49.16C116.91 49.006 116.609 48.929 116.287 48.929C115.964 48.929 115.663 49.006 115.385 49.16C115.113 49.314 114.897 49.545 114.736 49.853C114.574 50.1537 114.494 50.524 114.494 50.964C114.494 51.6167 114.659 52.1227 114.989 52.482C115.326 52.834 115.748 53.01 116.254 53.01ZM127.976 47.84C128.453 47.84 128.878 47.939 129.252 48.137C129.634 48.335 129.931 48.6283 130.143 49.017C130.363 49.4057 130.473 49.875 130.473 50.425V54H129.23V50.612C129.23 50.0693 129.095 49.655 128.823 49.369C128.552 49.0757 128.182 48.929 127.712 48.929C127.243 48.929 126.869 49.0757 126.59 49.369C126.319 49.655 126.183 50.0693 126.183 50.612V54H124.94V50.612C124.94 50.0693 124.805 49.655 124.533 49.369C124.262 49.0757 123.892 48.929 123.422 48.929C122.953 48.929 122.579 49.0757 122.3 49.369C122.029 49.655 121.893 50.0693 121.893 50.612V54H120.639V47.939H121.893V48.632C122.099 48.3827 122.359 48.1883 122.674 48.049C122.99 47.9097 123.327 47.84 123.686 47.84C124.17 47.84 124.603 47.9427 124.984 48.148C125.366 48.3533 125.659 48.6503 125.864 49.039C126.048 48.6723 126.334 48.3827 126.722 48.17C127.111 47.95 127.529 47.84 127.976 47.84ZM139.406 47.84C139.883 47.84 140.308 47.939 140.682 48.137C141.063 48.335 141.36 48.6283 141.573 49.017C141.793 49.4057 141.903 49.875 141.903 50.425V54H140.66V50.612C140.66 50.0693 140.524 49.655 140.253 49.369C139.982 49.0757 139.611 48.929 139.142 48.929C138.673 48.929 138.299 49.0757 138.02 49.369C137.749 49.655 137.613 50.0693 137.613 50.612V54H136.37V50.612C136.37 50.0693 136.234 49.655 135.963 49.369C135.692 49.0757 135.321 48.929 134.852 48.929C134.383 48.929 134.009 49.0757 133.73 49.369C133.459 49.655 133.323 50.0693 133.323 50.612V54H132.069V47.939H133.323V48.632C133.528 48.3827 133.789 48.1883 134.104 48.049C134.419 47.9097 134.757 47.84 135.116 47.84C135.6 47.84 136.033 47.9427 136.414 48.148C136.795 48.3533 137.089 48.6503 137.294 49.039C137.477 48.6723 137.763 48.3827 138.152 48.17C138.541 47.95 138.959 47.84 139.406 47.84ZM149.054 50.821C149.054 51.0483 149.039 51.2537 149.01 51.437H144.379C144.415 51.921 144.595 52.3097 144.918 52.603C145.24 52.8963 145.636 53.043 146.106 53.043C146.78 53.043 147.257 52.7607 147.536 52.196H148.889C148.705 52.7533 148.372 53.2117 147.888 53.571C147.411 53.923 146.817 54.099 146.106 54.099C145.526 54.099 145.006 53.9707 144.544 53.714C144.089 53.45 143.73 53.0833 143.466 52.614C143.209 52.1373 143.081 51.5873 143.081 50.964C143.081 50.3407 143.205 49.7943 143.455 49.325C143.711 48.8483 144.067 48.4817 144.522 48.225C144.984 47.9683 145.512 47.84 146.106 47.84C146.678 47.84 147.187 47.9647 147.635 48.214C148.082 48.4633 148.43 48.8153 148.68 49.27C148.929 49.7173 149.054 50.2343 149.054 50.821ZM147.745 50.425C147.737 49.963 147.572 49.5927 147.25 49.314C146.927 49.0353 146.527 48.896 146.051 48.896C145.618 48.896 145.248 49.0353 144.94 49.314C144.632 49.5853 144.448 49.9557 144.39 50.425H147.745ZM151.542 48.819C151.725 48.511 151.967 48.2727 152.268 48.104C152.576 47.928 152.939 47.84 153.357 47.84V49.138H153.038C152.547 49.138 152.173 49.2627 151.916 49.512C151.667 49.7613 151.542 50.194 151.542 50.81V54H150.288V47.939H151.542V48.819ZM154.092 50.964C154.092 50.3407 154.216 49.7943 154.466 49.325C154.722 48.8483 155.074 48.4817 155.522 48.225C155.969 47.9683 156.482 47.84 157.062 47.84C157.795 47.84 158.4 48.016 158.877 48.368C159.361 48.7127 159.687 49.2077 159.856 49.853H158.503C158.393 49.5523 158.217 49.3177 157.975 49.149C157.733 48.9803 157.428 48.896 157.062 48.896C156.548 48.896 156.138 49.0793 155.83 49.446C155.529 49.8053 155.379 50.3113 155.379 50.964C155.379 51.6167 155.529 52.1263 155.83 52.493C156.138 52.8597 156.548 53.043 157.062 53.043C157.788 53.043 158.268 52.724 158.503 52.086H159.856C159.68 52.702 159.35 53.1933 158.866 53.56C158.382 53.9193 157.78 54.099 157.062 54.099C156.482 54.099 155.969 53.9707 155.522 53.714C155.074 53.45 154.722 53.0833 154.466 52.614C154.216 52.1373 154.092 51.5873 154.092 50.964ZM166.66 50.821C166.66 51.0483 166.646 51.2537 166.616 51.437H161.985C162.022 51.921 162.202 52.3097 162.524 52.603C162.847 52.8963 163.243 53.043 163.712 53.043C164.387 53.043 164.864 52.7607 165.142 52.196H166.495C166.312 52.7533 165.978 53.2117 165.494 53.571C165.018 53.923 164.424 54.099 163.712 54.099C163.133 54.099 162.612 53.9707 162.15 53.714C161.696 53.45 161.336 53.0833 161.072 52.614C160.816 52.1373 160.687 51.5873 160.687 50.964C160.687 50.3407 160.812 49.7943 161.061 49.325C161.318 48.8483 161.674 48.4817 162.128 48.225C162.59 47.9683 163.118 47.84 163.712 47.84C164.284 47.84 164.794 47.9647 165.241 48.214C165.689 48.4633 166.037 48.8153 166.286 49.27C166.536 49.7173 166.66 50.2343 166.66 50.821ZM165.351 50.425C165.344 49.963 165.179 49.5927 164.856 49.314C164.534 49.0353 164.134 48.896 163.657 48.896C163.225 48.896 162.854 49.0353 162.546 49.314C162.238 49.5853 162.055 49.9557 161.996 50.425H165.351Z" fill="#9966CD"/>
<path d="M17.6 18C17.985 18 18.3147 17.8628 18.5891 17.5884C18.863 17.3145 19 16.985 19 16.6C19 16.215 18.863 15.8853 18.5891 15.6109C18.3147 15.337 17.985 15.2 17.6 15.2C17.215 15.2 16.8855 15.337 16.6116 15.6109C16.3372 15.8853 16.2 16.215 16.2 16.6C16.2 16.985 16.3372 17.3145 16.6116 17.5884C16.8855 17.8628 17.215 18 17.6 18ZM17.6 25C15.7217 23.4017 14.3189 21.917 13.3916 20.5459C12.4639 19.1753 12 17.9067 12 16.74C12 14.99 12.563 13.5958 13.6891 12.5575C14.8147 11.5192 16.1183 11 17.6 11C19.0817 11 20.3853 11.5192 21.5109 12.5575C22.637 13.5958 23.2 14.99 23.2 16.74C23.2 17.9067 22.7364 19.1753 21.8091 20.5459C20.8814 21.917 19.4783 23.4017 17.6 25Z" fill="#707070"/>
<path d="M252.185 21.6087L248.793 18.2174C248.38 17.8043 248.288 17.3317 248.517 16.7996C248.745 16.2665 249.152 16 249.739 16H256.456C257.043 16 257.451 16.2665 257.679 16.7996C257.907 17.3317 257.815 17.8043 257.402 18.2174L254.011 21.6087C253.88 21.7391 253.739 21.837 253.587 21.9022C253.435 21.9674 253.272 22 253.098 22C252.924 22 252.761 21.9674 252.609 21.9022C252.456 21.837 252.315 21.7391 252.185 21.6087Z" fill="#707070"/>
<rect x="290.5" y="0.5" width="584" height="35" rx="3.5" stroke="#707070"/>
<rect x="290.5" y="0.5" width="100" height="35" rx="3.5" fill="#9966CD" stroke="#9966CD"/>
<path d="M404.952 24.091C404.345 24.091 403.799 23.987 403.314 23.779C402.829 23.5623 402.447 23.259 402.17 22.869C401.893 22.479 401.754 22.024 401.754 21.504H403.34C403.375 21.894 403.526 22.2147 403.795 22.466C404.072 22.7173 404.458 22.843 404.952 22.843C405.463 22.843 405.862 22.7217 406.148 22.479C406.434 22.2277 406.577 21.907 406.577 21.517C406.577 21.2137 406.486 20.9667 406.304 20.776C406.131 20.5853 405.91 20.438 405.641 20.334C405.381 20.23 405.017 20.1173 404.549 19.996C403.96 19.84 403.479 19.684 403.106 19.528C402.742 19.3633 402.43 19.112 402.17 18.774C401.91 18.436 401.78 17.9853 401.78 17.422C401.78 16.902 401.91 16.447 402.17 16.057C402.43 15.667 402.794 15.368 403.262 15.16C403.73 14.952 404.272 14.848 404.887 14.848C405.762 14.848 406.477 15.069 407.032 15.511C407.595 15.9443 407.907 16.5423 407.968 17.305H406.33C406.304 16.9757 406.148 16.694 405.862 16.46C405.576 16.226 405.199 16.109 404.731 16.109C404.306 16.109 403.96 16.2173 403.691 16.434C403.422 16.6507 403.288 16.9627 403.288 17.37C403.288 17.6473 403.37 17.877 403.535 18.059C403.708 18.2323 403.925 18.371 404.185 18.475C404.445 18.579 404.8 18.6917 405.251 18.813C405.849 18.9777 406.334 19.1423 406.707 19.307C407.088 19.4717 407.409 19.7273 407.669 20.074C407.938 20.412 408.072 20.867 408.072 21.439C408.072 21.8983 407.946 22.3317 407.695 22.739C407.452 23.1463 407.093 23.4757 406.616 23.727C406.148 23.9697 405.593 24.091 404.952 24.091ZM416.386 20.243C416.386 20.5117 416.368 20.7543 416.334 20.971H410.861C410.904 21.543 411.116 22.0023 411.498 22.349C411.879 22.6957 412.347 22.869 412.902 22.869C413.699 22.869 414.262 22.5353 414.592 21.868H416.191C415.974 22.5267 415.58 23.0683 415.008 23.493C414.444 23.909 413.742 24.117 412.902 24.117C412.217 24.117 411.602 23.9653 411.056 23.662C410.518 23.35 410.094 22.9167 409.782 22.362C409.478 21.7987 409.327 21.1487 409.327 20.412C409.327 19.6753 409.474 19.0297 409.769 18.475C410.072 17.9117 410.492 17.4783 411.03 17.175C411.576 16.8717 412.2 16.72 412.902 16.72C413.578 16.72 414.18 16.8673 414.709 17.162C415.237 17.4567 415.649 17.8727 415.944 18.41C416.238 18.9387 416.386 19.5497 416.386 20.243ZM414.839 19.775C414.83 19.229 414.635 18.7913 414.254 18.462C413.872 18.1327 413.4 17.968 412.837 17.968C412.325 17.968 411.888 18.1327 411.524 18.462C411.16 18.7827 410.943 19.2203 410.874 19.775H414.839ZM417.35 20.386C417.35 19.6667 417.497 19.0297 417.792 18.475C418.095 17.9203 418.503 17.4913 419.014 17.188C419.534 16.876 420.106 16.72 420.73 16.72C421.293 16.72 421.783 16.8327 422.199 17.058C422.624 17.2747 422.962 17.5477 423.213 17.877V16.837H424.708V24H423.213V22.934C422.962 23.272 422.619 23.5537 422.186 23.779C421.753 24.0043 421.259 24.117 420.704 24.117C420.089 24.117 419.525 23.961 419.014 23.649C418.503 23.3283 418.095 22.8863 417.792 22.323C417.497 21.751 417.35 21.1053 417.35 20.386ZM423.213 20.412C423.213 19.918 423.109 19.489 422.901 19.125C422.702 18.761 422.437 18.4837 422.108 18.293C421.779 18.1023 421.423 18.007 421.042 18.007C420.661 18.007 420.305 18.1023 419.976 18.293C419.647 18.475 419.378 18.748 419.17 19.112C418.971 19.4673 418.871 19.892 418.871 20.386C418.871 20.88 418.971 21.3133 419.17 21.686C419.378 22.0587 419.647 22.3447 419.976 22.544C420.314 22.7347 420.669 22.83 421.042 22.83C421.423 22.83 421.779 22.7347 422.108 22.544C422.437 22.3533 422.702 22.076 422.901 21.712C423.109 21.3393 423.213 20.906 423.213 20.412ZM428.137 17.877C428.353 17.513 428.639 17.2313 428.995 17.032C429.359 16.824 429.788 16.72 430.282 16.72V18.254H429.905C429.324 18.254 428.882 18.4013 428.579 18.696C428.284 18.9907 428.137 19.502 428.137 20.23V24H426.655V16.837H428.137V17.877ZM431.15 20.412C431.15 19.6753 431.297 19.0297 431.592 18.475C431.895 17.9117 432.311 17.4783 432.84 17.175C433.369 16.8717 433.975 16.72 434.66 16.72C435.527 16.72 436.242 16.928 436.805 17.344C437.377 17.7513 437.763 18.3363 437.962 19.099H436.363C436.233 18.7437 436.025 18.4663 435.739 18.267C435.453 18.0677 435.093 17.968 434.66 17.968C434.053 17.968 433.568 18.1847 433.204 18.618C432.849 19.0427 432.671 19.6407 432.671 20.412C432.671 21.1833 432.849 21.7857 433.204 22.219C433.568 22.6523 434.053 22.869 434.66 22.869C435.518 22.869 436.086 22.492 436.363 21.738H437.962C437.754 22.466 437.364 23.0467 436.792 23.48C436.22 23.9047 435.509 24.117 434.66 24.117C433.975 24.117 433.369 23.9653 432.84 23.662C432.311 23.35 431.895 22.9167 431.592 22.362C431.297 21.7987 431.15 21.1487 431.15 20.412ZM443.144 16.72C443.69 16.72 444.175 16.837 444.6 17.071C445.033 17.305 445.371 17.6517 445.614 18.111C445.865 18.5703 445.991 19.125 445.991 19.775V24H444.522V19.996C444.522 19.3547 444.362 18.865 444.041 18.527C443.72 18.1803 443.283 18.007 442.728 18.007C442.173 18.007 441.731 18.1803 441.402 18.527C441.081 18.865 440.921 19.3547 440.921 19.996V24H439.439V14.38H440.921V17.669C441.172 17.3657 441.489 17.1317 441.87 16.967C442.26 16.8023 442.685 16.72 443.144 16.72ZM457.576 17.656C457.576 18.1153 457.468 18.5487 457.251 18.956C457.035 19.3633 456.688 19.697 456.211 19.957C455.735 20.2083 455.124 20.334 454.378 20.334H452.74V24H451.258V14.965H454.378C455.072 14.965 455.657 15.0863 456.133 15.329C456.619 15.563 456.978 15.8837 457.212 16.291C457.455 16.6983 457.576 17.1533 457.576 17.656ZM454.378 19.125C454.942 19.125 455.362 18.9993 455.639 18.748C455.917 18.488 456.055 18.124 456.055 17.656C456.055 16.668 455.496 16.174 454.378 16.174H452.74V19.125H454.378ZM460.472 17.877C460.688 17.513 460.974 17.2313 461.33 17.032C461.694 16.824 462.123 16.72 462.617 16.72V18.254H462.24C461.659 18.254 461.217 18.4013 460.914 18.696C460.619 18.9907 460.472 19.502 460.472 20.23V24H458.99V16.837H460.472V17.877ZM467.086 24.117C466.41 24.117 465.799 23.9653 465.253 23.662C464.707 23.35 464.278 22.9167 463.966 22.362C463.654 21.7987 463.498 21.1487 463.498 20.412C463.498 19.684 463.658 19.0383 463.979 18.475C464.3 17.9117 464.737 17.4783 465.292 17.175C465.847 16.8717 466.466 16.72 467.151 16.72C467.836 16.72 468.455 16.8717 469.01 17.175C469.565 17.4783 470.002 17.9117 470.323 18.475C470.644 19.0383 470.804 19.684 470.804 20.412C470.804 21.14 470.639 21.7857 470.31 22.349C469.981 22.9123 469.53 23.35 468.958 23.662C468.395 23.9653 467.771 24.117 467.086 24.117ZM467.086 22.83C467.467 22.83 467.823 22.739 468.152 22.557C468.49 22.375 468.763 22.102 468.971 21.738C469.179 21.374 469.283 20.932 469.283 20.412C469.283 19.892 469.183 19.4543 468.984 19.099C468.785 18.735 468.52 18.462 468.191 18.28C467.862 18.098 467.506 18.007 467.125 18.007C466.744 18.007 466.388 18.098 466.059 18.28C465.738 18.462 465.483 18.735 465.292 19.099C465.101 19.4543 465.006 19.892 465.006 20.412C465.006 21.1833 465.201 21.7813 465.591 22.206C465.99 22.622 466.488 22.83 467.086 22.83ZM471.775 20.386C471.775 19.6667 471.922 19.0297 472.217 18.475C472.52 17.9203 472.928 17.4913 473.439 17.188C473.959 16.876 474.535 16.72 475.168 16.72C475.636 16.72 476.095 16.824 476.546 17.032C477.005 17.2313 477.369 17.5 477.638 17.838V14.38H479.133V24H477.638V22.921C477.395 23.2677 477.057 23.5537 476.624 23.779C476.199 24.0043 475.71 24.117 475.155 24.117C474.531 24.117 473.959 23.961 473.439 23.649C472.928 23.3283 472.52 22.8863 472.217 22.323C471.922 21.751 471.775 21.1053 471.775 20.386ZM477.638 20.412C477.638 19.918 477.534 19.489 477.326 19.125C477.127 18.761 476.862 18.4837 476.533 18.293C476.204 18.1023 475.848 18.007 475.467 18.007C475.086 18.007 474.73 18.1023 474.401 18.293C474.072 18.475 473.803 18.748 473.595 19.112C473.396 19.4673 473.296 19.892 473.296 20.386C473.296 20.88 473.396 21.3133 473.595 21.686C473.803 22.0587 474.072 22.3447 474.401 22.544C474.739 22.7347 475.094 22.83 475.467 22.83C475.848 22.83 476.204 22.7347 476.533 22.544C476.862 22.3533 477.127 22.076 477.326 21.712C477.534 21.3393 477.638 20.906 477.638 20.412ZM487.566 16.837V24H486.084V23.155C485.85 23.4497 485.543 23.6837 485.161 23.857C484.789 24.0217 484.39 24.104 483.965 24.104C483.402 24.104 482.895 23.987 482.444 23.753C482.002 23.519 481.651 23.1723 481.391 22.713C481.14 22.2537 481.014 21.699 481.014 21.049V16.837H482.483V20.828C482.483 21.4693 482.644 21.9633 482.964 22.31C483.285 22.648 483.723 22.817 484.277 22.817C484.832 22.817 485.27 22.648 485.59 22.31C485.92 21.9633 486.084 21.4693 486.084 20.828V16.837H487.566ZM489.028 20.412C489.028 19.6753 489.175 19.0297 489.47 18.475C489.773 17.9117 490.189 17.4783 490.718 17.175C491.247 16.8717 491.853 16.72 492.538 16.72C493.405 16.72 494.12 16.928 494.683 17.344C495.255 17.7513 495.641 18.3363 495.84 19.099H494.241C494.111 18.7437 493.903 18.4663 493.617 18.267C493.331 18.0677 492.971 17.968 492.538 17.968C491.931 17.968 491.446 18.1847 491.082 18.618C490.727 19.0427 490.549 19.6407 490.549 20.412C490.549 21.1833 490.727 21.7857 491.082 22.219C491.446 22.6523 491.931 22.869 492.538 22.869C493.396 22.869 493.964 22.492 494.241 21.738H495.84C495.632 22.466 495.242 23.0467 494.67 23.48C494.098 23.9047 493.387 24.117 492.538 24.117C491.853 24.117 491.247 23.9653 490.718 23.662C490.189 23.35 489.773 22.9167 489.47 22.362C489.175 21.7987 489.028 21.1487 489.028 20.412ZM499.046 18.046V22.011C499.046 22.2797 499.106 22.4747 499.228 22.596C499.358 22.7087 499.574 22.765 499.878 22.765H500.788V24H499.618C498.95 24 498.439 23.844 498.084 23.532C497.728 23.22 497.551 22.713 497.551 22.011V18.046H496.706V16.837H497.551V15.056H499.046V16.837H500.788V18.046H499.046Z" fill="#707070"/>
<path d="M307.293 16.656C307.293 17.1153 307.185 17.5487 306.968 17.956C306.751 18.3633 306.405 18.697 305.928 18.957C305.451 19.2083 304.84 19.334 304.095 19.334H302.457V23H300.975V13.965H304.095C304.788 13.965 305.373 14.0863 305.85 14.329C306.335 14.563 306.695 14.8837 306.929 15.291C307.172 15.6983 307.293 16.1533 307.293 16.656ZM304.095 18.125C304.658 18.125 305.079 17.9993 305.356 17.748C305.633 17.488 305.772 17.124 305.772 16.656C305.772 15.668 305.213 15.174 304.095 15.174H302.457V18.125H304.095ZM310.188 16.877C310.405 16.513 310.691 16.2313 311.046 16.032C311.41 15.824 311.839 15.72 312.333 15.72V17.254H311.956C311.376 17.254 310.934 17.4013 310.63 17.696C310.336 17.9907 310.188 18.502 310.188 19.23V23H308.706V15.837H310.188V16.877ZM316.803 23.117C316.127 23.117 315.516 22.9653 314.97 22.662C314.424 22.35 313.995 21.9167 313.683 21.362C313.371 20.7987 313.215 20.1487 313.215 19.412C313.215 18.684 313.375 18.0383 313.696 17.475C314.016 16.9117 314.454 16.4783 315.009 16.175C315.563 15.8717 316.183 15.72 316.868 15.72C317.552 15.72 318.172 15.8717 318.727 16.175C319.281 16.4783 319.719 16.9117 320.04 17.475C320.36 18.0383 320.521 18.684 320.521 19.412C320.521 20.14 320.356 20.7857 320.027 21.349C319.697 21.9123 319.247 22.35 318.675 22.662C318.111 22.9653 317.487 23.117 316.803 23.117ZM316.803 21.83C317.184 21.83 317.539 21.739 317.869 21.557C318.207 21.375 318.48 21.102 318.688 20.738C318.896 20.374 319 19.932 319 19.412C319 18.892 318.9 18.4543 318.701 18.099C318.501 17.735 318.237 17.462 317.908 17.28C317.578 17.098 317.223 17.007 316.842 17.007C316.46 17.007 316.105 17.098 315.776 17.28C315.455 17.462 315.199 17.735 315.009 18.099C314.818 18.4543 314.723 18.892 314.723 19.412C314.723 20.1833 314.918 20.7813 315.308 21.206C315.706 21.622 316.205 21.83 316.803 21.83ZM321.492 19.386C321.492 18.6667 321.639 18.0297 321.934 17.475C322.237 16.9203 322.644 16.4913 323.156 16.188C323.676 15.876 324.252 15.72 324.885 15.72C325.353 15.72 325.812 15.824 326.263 16.032C326.722 16.2313 327.086 16.5 327.355 16.838V13.38H328.85V23H327.355V21.921C327.112 22.2677 326.774 22.5537 326.341 22.779C325.916 23.0043 325.426 23.117 324.872 23.117C324.248 23.117 323.676 22.961 323.156 22.649C322.644 22.3283 322.237 21.8863 321.934 21.323C321.639 20.751 321.492 20.1053 321.492 19.386ZM327.355 19.412C327.355 18.918 327.251 18.489 327.043 18.125C326.843 17.761 326.579 17.4837 326.25 17.293C325.92 17.1023 325.565 17.007 325.184 17.007C324.802 17.007 324.447 17.1023 324.118 17.293C323.788 17.475 323.52 17.748 323.312 18.112C323.112 18.4673 323.013 18.892 323.013 19.386C323.013 19.88 323.112 20.3133 323.312 20.686C323.52 21.0587 323.788 21.3447 324.118 21.544C324.456 21.7347 324.811 21.83 325.184 21.83C325.565 21.83 325.92 21.7347 326.25 21.544C326.579 21.3533 326.843 21.076 327.043 20.712C327.251 20.3393 327.355 19.906 327.355 19.412ZM337.283 15.837V23H335.801V22.155C335.567 22.4497 335.26 22.6837 334.878 22.857C334.506 23.0217 334.107 23.104 333.682 23.104C333.119 23.104 332.612 22.987 332.161 22.753C331.719 22.519 331.368 22.1723 331.108 21.713C330.857 21.2537 330.731 20.699 330.731 20.049V15.837H332.2V19.828C332.2 20.4693 332.361 20.9633 332.681 21.31C333.002 21.648 333.44 21.817 333.994 21.817C334.549 21.817 334.987 21.648 335.307 21.31C335.637 20.9633 335.801 20.4693 335.801 19.828V15.837H337.283ZM338.745 19.412C338.745 18.6753 338.892 18.0297 339.187 17.475C339.49 16.9117 339.906 16.4783 340.435 16.175C340.963 15.8717 341.57 15.72 342.255 15.72C343.121 15.72 343.836 15.928 344.4 16.344C344.972 16.7513 345.357 17.3363 345.557 18.099H343.958C343.828 17.7437 343.62 17.4663 343.334 17.267C343.048 17.0677 342.688 16.968 342.255 16.968C341.648 16.968 341.163 17.1847 340.799 17.618C340.443 18.0427 340.266 18.6407 340.266 19.412C340.266 20.1833 340.443 20.7857 340.799 21.219C341.163 21.6523 341.648 21.869 342.255 21.869C343.113 21.869 343.68 21.492 343.958 20.738H345.557C345.349 21.466 344.959 22.0467 344.387 22.48C343.815 22.9047 343.104 23.117 342.255 23.117C341.57 23.117 340.963 22.9653 340.435 22.662C339.906 22.35 339.49 21.9167 339.187 21.362C338.892 20.7987 338.745 20.1487 338.745 19.412ZM348.763 17.046V21.011C348.763 21.2797 348.823 21.4747 348.945 21.596C349.075 21.7087 349.291 21.765 349.595 21.765H350.505V23H349.335C348.667 23 348.156 22.844 347.801 22.532C347.445 22.22 347.268 21.713 347.268 21.011V17.046H346.423V15.837H347.268V14.056H348.763V15.837H350.505V17.046H348.763Z" fill="white"/>
<path d="M375.185 21.6087L371.793 18.2174C371.38 17.8043 371.288 17.3317 371.517 16.7996C371.745 16.2665 372.152 16 372.739 16H379.456C380.043 16 380.451 16.2665 380.679 16.7996C380.907 17.3317 380.815 17.8043 380.402 18.2174L377.011 21.6087C376.88 21.7391 376.739 21.837 376.587 21.9022C376.435 21.9674 376.272 22 376.098 22C375.924 22 375.761 21.9674 375.609 21.9022C375.456 21.837 375.315 21.7391 375.185 21.6087Z" fill="white"/>
<rect x="895.5" y="0.5" width="105" height="35" rx="17.5" stroke="#707070"/>
<path d="M925.481 19.463C925.481 18.579 925.685 17.786 926.092 17.084C926.508 16.382 927.067 15.836 927.769 15.446C928.48 15.0473 929.255 14.848 930.096 14.848C931.058 14.848 931.912 15.0863 932.657 15.563C933.411 16.031 933.957 16.6983 934.295 17.565H932.514C932.28 17.0883 931.955 16.733 931.539 16.499C931.123 16.265 930.642 16.148 930.096 16.148C929.498 16.148 928.965 16.2823 928.497 16.551C928.029 16.8197 927.661 17.2053 927.392 17.708C927.132 18.2107 927.002 18.7957 927.002 19.463C927.002 20.1303 927.132 20.7153 927.392 21.218C927.661 21.7207 928.029 22.1107 928.497 22.388C928.965 22.6567 929.498 22.791 930.096 22.791C930.642 22.791 931.123 22.674 931.539 22.44C931.955 22.206 932.28 21.8507 932.514 21.374H934.295C933.957 22.2407 933.411 22.908 932.657 23.376C931.912 23.844 931.058 24.078 930.096 24.078C929.247 24.078 928.471 23.883 927.769 23.493C927.067 23.0943 926.508 22.544 926.092 21.842C925.685 21.14 925.481 20.347 925.481 19.463ZM935.536 20.386C935.536 19.6667 935.683 19.0297 935.978 18.475C936.281 17.9203 936.688 17.4913 937.2 17.188C937.72 16.876 938.292 16.72 938.916 16.72C939.479 16.72 939.969 16.8327 940.385 17.058C940.809 17.2747 941.147 17.5477 941.399 17.877V16.837H942.894V24H941.399V22.934C941.147 23.272 940.805 23.5537 940.372 23.779C939.938 24.0043 939.444 24.117 938.89 24.117C938.274 24.117 937.711 23.961 937.2 23.649C936.688 23.3283 936.281 22.8863 935.978 22.323C935.683 21.751 935.536 21.1053 935.536 20.386ZM941.399 20.412C941.399 19.918 941.295 19.489 941.087 19.125C940.887 18.761 940.623 18.4837 940.294 18.293C939.964 18.1023 939.609 18.007 939.228 18.007C938.846 18.007 938.491 18.1023 938.162 18.293C937.832 18.475 937.564 18.748 937.356 19.112C937.156 19.4673 937.057 19.892 937.057 20.386C937.057 20.88 937.156 21.3133 937.356 21.686C937.564 22.0587 937.832 22.3447 938.162 22.544C938.5 22.7347 938.855 22.83 939.228 22.83C939.609 22.83 939.964 22.7347 940.294 22.544C940.623 22.3533 940.887 22.076 941.087 21.712C941.295 21.3393 941.399 20.906 941.399 20.412ZM948.454 16.72C949.018 16.72 949.52 16.837 949.962 17.071C950.413 17.305 950.764 17.6517 951.015 18.111C951.267 18.5703 951.392 19.125 951.392 19.775V24H949.923V19.996C949.923 19.3547 949.763 18.865 949.442 18.527C949.122 18.1803 948.684 18.007 948.129 18.007C947.575 18.007 947.133 18.1803 946.803 18.527C946.483 18.865 946.322 19.3547 946.322 19.996V24H944.84V16.837H946.322V17.656C946.565 17.3613 946.873 17.1317 947.245 16.967C947.627 16.8023 948.03 16.72 948.454 16.72ZM952.789 20.412C952.789 19.6753 952.936 19.0297 953.231 18.475C953.534 17.9117 953.95 17.4783 954.479 17.175C955.007 16.8717 955.614 16.72 956.299 16.72C957.165 16.72 957.88 16.928 958.444 17.344C959.016 17.7513 959.401 18.3363 959.601 19.099H958.002C957.872 18.7437 957.664 18.4663 957.378 18.267C957.092 18.0677 956.732 17.968 956.299 17.968C955.692 17.968 955.207 18.1847 954.843 18.618C954.487 19.0427 954.31 19.6407 954.31 20.412C954.31 21.1833 954.487 21.7857 954.843 22.219C955.207 22.6523 955.692 22.869 956.299 22.869C957.157 22.869 957.724 22.492 958.002 21.738H959.601C959.393 22.466 959.003 23.0467 958.431 23.48C957.859 23.9047 957.148 24.117 956.299 24.117C955.614 24.117 955.007 23.9653 954.479 23.662C953.95 23.35 953.534 22.9167 953.231 22.362C952.936 21.7987 952.789 21.1487 952.789 20.412ZM967.643 20.243C967.643 20.5117 967.625 20.7543 967.591 20.971H962.118C962.161 21.543 962.373 22.0023 962.755 22.349C963.136 22.6957 963.604 22.869 964.159 22.869C964.956 22.869 965.519 22.5353 965.849 21.868H967.448C967.231 22.5267 966.837 23.0683 966.265 23.493C965.701 23.909 964.999 24.117 964.159 24.117C963.474 24.117 962.859 23.9653 962.313 23.662C961.775 23.35 961.351 22.9167 961.039 22.362C960.735 21.7987 960.584 21.1487 960.584 20.412C960.584 19.6753 960.731 19.0297 961.026 18.475C961.329 17.9117 961.749 17.4783 962.287 17.175C962.833 16.8717 963.457 16.72 964.159 16.72C964.835 16.72 965.437 16.8673 965.966 17.162C966.494 17.4567 966.906 17.8727 967.201 18.41C967.495 18.9387 967.643 19.5497 967.643 20.243ZM966.096 19.775C966.087 19.229 965.892 18.7913 965.511 18.462C965.129 18.1327 964.657 17.968 964.094 17.968C963.582 17.968 963.145 18.1327 962.781 18.462C962.417 18.7827 962.2 19.2203 962.131 19.775H966.096ZM970.583 14.38V24H969.101V14.38H970.583Z" fill="#707070"/>
<rect x="1021.5" y="0.5" width="105" height="35" rx="17.5" fill="#9966CD" stroke="#9966CD"/>
<path d="M1054.95 24.091C1054.35 24.091 1053.8 23.987 1053.31 23.779C1052.83 23.5623 1052.45 23.259 1052.17 22.869C1051.89 22.479 1051.75 22.024 1051.75 21.504H1053.34C1053.37 21.894 1053.53 22.2147 1053.8 22.466C1054.07 22.7173 1054.46 22.843 1054.95 22.843C1055.46 22.843 1055.86 22.7217 1056.15 22.479C1056.43 22.2277 1056.58 21.907 1056.58 21.517C1056.58 21.2137 1056.49 20.9667 1056.3 20.776C1056.13 20.5853 1055.91 20.438 1055.64 20.334C1055.38 20.23 1055.02 20.1173 1054.55 19.996C1053.96 19.84 1053.48 19.684 1053.11 19.528C1052.74 19.3633 1052.43 19.112 1052.17 18.774C1051.91 18.436 1051.78 17.9853 1051.78 17.422C1051.78 16.902 1051.91 16.447 1052.17 16.057C1052.43 15.667 1052.79 15.368 1053.26 15.16C1053.73 14.952 1054.27 14.848 1054.89 14.848C1055.76 14.848 1056.48 15.069 1057.03 15.511C1057.6 15.9443 1057.91 16.5423 1057.97 17.305H1056.33C1056.3 16.9757 1056.15 16.694 1055.86 16.46C1055.58 16.226 1055.2 16.109 1054.73 16.109C1054.31 16.109 1053.96 16.2173 1053.69 16.434C1053.42 16.6507 1053.29 16.9627 1053.29 17.37C1053.29 17.6473 1053.37 17.877 1053.54 18.059C1053.71 18.2323 1053.93 18.371 1054.19 18.475C1054.45 18.579 1054.8 18.6917 1055.25 18.813C1055.85 18.9777 1056.33 19.1423 1056.71 19.307C1057.09 19.4717 1057.41 19.7273 1057.67 20.074C1057.94 20.412 1058.07 20.867 1058.07 21.439C1058.07 21.8983 1057.95 22.3317 1057.7 22.739C1057.45 23.1463 1057.09 23.4757 1056.62 23.727C1056.15 23.9697 1055.59 24.091 1054.95 24.091ZM1066.39 20.243C1066.39 20.5117 1066.37 20.7543 1066.33 20.971H1060.86C1060.9 21.543 1061.12 22.0023 1061.5 22.349C1061.88 22.6957 1062.35 22.869 1062.9 22.869C1063.7 22.869 1064.26 22.5353 1064.59 21.868H1066.19C1065.97 22.5267 1065.58 23.0683 1065.01 23.493C1064.44 23.909 1063.74 24.117 1062.9 24.117C1062.22 24.117 1061.6 23.9653 1061.06 23.662C1060.52 23.35 1060.09 22.9167 1059.78 22.362C1059.48 21.7987 1059.33 21.1487 1059.33 20.412C1059.33 19.6753 1059.47 19.0297 1059.77 18.475C1060.07 17.9117 1060.49 17.4783 1061.03 17.175C1061.58 16.8717 1062.2 16.72 1062.9 16.72C1063.58 16.72 1064.18 16.8673 1064.71 17.162C1065.24 17.4567 1065.65 17.8727 1065.94 18.41C1066.24 18.9387 1066.39 19.5497 1066.39 20.243ZM1064.84 19.775C1064.83 19.229 1064.64 18.7913 1064.25 18.462C1063.87 18.1327 1063.4 17.968 1062.84 17.968C1062.33 17.968 1061.89 18.1327 1061.52 18.462C1061.16 18.7827 1060.94 19.2203 1060.87 19.775H1064.84ZM1067.35 20.386C1067.35 19.6667 1067.5 19.0297 1067.79 18.475C1068.1 17.9203 1068.5 17.4913 1069.01 17.188C1069.53 16.876 1070.11 16.72 1070.73 16.72C1071.29 16.72 1071.78 16.8327 1072.2 17.058C1072.62 17.2747 1072.96 17.5477 1073.21 17.877V16.837H1074.71V24H1073.21V22.934C1072.96 23.272 1072.62 23.5537 1072.19 23.779C1071.75 24.0043 1071.26 24.117 1070.7 24.117C1070.09 24.117 1069.53 23.961 1069.01 23.649C1068.5 23.3283 1068.1 22.8863 1067.79 22.323C1067.5 21.751 1067.35 21.1053 1067.35 20.386ZM1073.21 20.412C1073.21 19.918 1073.11 19.489 1072.9 19.125C1072.7 18.761 1072.44 18.4837 1072.11 18.293C1071.78 18.1023 1071.42 18.007 1071.04 18.007C1070.66 18.007 1070.31 18.1023 1069.98 18.293C1069.65 18.475 1069.38 18.748 1069.17 19.112C1068.97 19.4673 1068.87 19.892 1068.87 20.386C1068.87 20.88 1068.97 21.3133 1069.17 21.686C1069.38 22.0587 1069.65 22.3447 1069.98 22.544C1070.31 22.7347 1070.67 22.83 1071.04 22.83C1071.42 22.83 1071.78 22.7347 1072.11 22.544C1072.44 22.3533 1072.7 22.076 1072.9 21.712C1073.11 21.3393 1073.21 20.906 1073.21 20.412ZM1078.14 17.877C1078.35 17.513 1078.64 17.2313 1078.99 17.032C1079.36 16.824 1079.79 16.72 1080.28 16.72V18.254H1079.9C1079.32 18.254 1078.88 18.4013 1078.58 18.696C1078.28 18.9907 1078.14 19.502 1078.14 20.23V24H1076.65V16.837H1078.14V17.877ZM1081.15 20.412C1081.15 19.6753 1081.3 19.0297 1081.59 18.475C1081.9 17.9117 1082.31 17.4783 1082.84 17.175C1083.37 16.8717 1083.98 16.72 1084.66 16.72C1085.53 16.72 1086.24 16.928 1086.8 17.344C1087.38 17.7513 1087.76 18.3363 1087.96 19.099H1086.36C1086.23 18.7437 1086.02 18.4663 1085.74 18.267C1085.45 18.0677 1085.09 17.968 1084.66 17.968C1084.05 17.968 1083.57 18.1847 1083.2 18.618C1082.85 19.0427 1082.67 19.6407 1082.67 20.412C1082.67 21.1833 1082.85 21.7857 1083.2 22.219C1083.57 22.6523 1084.05 22.869 1084.66 22.869C1085.52 22.869 1086.09 22.492 1086.36 21.738H1087.96C1087.75 22.466 1087.36 23.0467 1086.79 23.48C1086.22 23.9047 1085.51 24.117 1084.66 24.117C1083.98 24.117 1083.37 23.9653 1082.84 23.662C1082.31 23.35 1081.9 22.9167 1081.59 22.362C1081.3 21.7987 1081.15 21.1487 1081.15 20.412ZM1093.14 16.72C1093.69 16.72 1094.18 16.837 1094.6 17.071C1095.03 17.305 1095.37 17.6517 1095.61 18.111C1095.87 18.5703 1095.99 19.125 1095.99 19.775V24H1094.52V19.996C1094.52 19.3547 1094.36 18.865 1094.04 18.527C1093.72 18.1803 1093.28 18.007 1092.73 18.007C1092.17 18.007 1091.73 18.1803 1091.4 18.527C1091.08 18.865 1090.92 19.3547 1090.92 19.996V24H1089.44V14.38H1090.92V17.669C1091.17 17.3657 1091.49 17.1317 1091.87 16.967C1092.26 16.8023 1092.68 16.72 1093.14 16.72Z" fill="white"/>
</svg>
