<svg width="250" height="250" viewBox="0 0 250 250" fill="none" xmlns="http://www.w3.org/2000/svg">
<circle cx="125" cy="125" r="124" fill="white" stroke="#9966CD" stroke-width="2" stroke-dasharray="4 4"/>
<path d="M198.796 158.307L50.5321 163.44L50 84.2941L118.249 51L200 83.373L198.796 158.307Z" fill="#A561FF"/>
<path d="M50 84.2941L118.249 51L118.39 128.818L50.7 163.193L50 84.2941Z" fill="#9A4DFF"/>
<path opacity="0.36" d="M200 83.3723L138.364 120.902V198.808L198.796 158.307L200 83.3723Z" fill="#8F39FF"/>
<path d="M50.5312 163.439L122.938 126.498L198.795 158.307L138.365 199.168L50.5312 163.439Z" fill="#8F39FF"/>
<path opacity="0.4" d="M199.999 83.3723L137.831 121.404V199.31L198.795 158.307L199.999 83.3723Z" fill="#994CFF"/>
<path d="M150.911 78.656C150.92 78.5341 150.933 78.4135 150.936 78.2916C150.939 77.4034 151.078 76.5193 151.348 75.6616C151.518 75.0809 151.849 74.5437 152.313 74.0948C152.931 73.5209 153.694 73.3602 154.571 73.4851C155.447 73.6099 156.249 73.9514 156.999 74.3459C157.793 74.7602 158.539 75.2372 159.229 75.7707C160.135 76.4737 160.817 77.3303 161.537 78.1639C161.789 78.4495 161.916 78.8021 161.894 79.1596C161.869 80.2042 161.894 81.2501 161.894 82.2961V82.4395C161.716 82.2157 161.559 82.0091 161.391 81.814C160.607 80.8381 159.668 79.9602 158.601 79.2055C158.149 78.8928 157.663 78.613 157.177 78.3447C156.794 78.1204 156.353 77.9777 155.892 77.9286C155.679 77.9 155.462 77.9255 155.267 78.0021C155.071 78.0787 154.907 78.2028 154.794 78.359C154.553 78.6767 154.407 79.0405 154.371 79.4179C154.305 79.8788 154.269 80.3425 154.262 80.8068C154.252 83.2937 154.252 85.785 154.262 88.2805C154.252 89.1682 154.415 90.0512 154.743 90.8933C155.157 91.9089 155.865 92.8182 156.801 93.5361C157.488 94.0788 158.249 94.5485 159.068 94.9351C159.672 95.2473 160.345 95.4486 161.045 95.5262C161.291 95.5331 161.538 95.5264 161.784 95.5061C161.817 95.5044 161.851 95.501 161.884 95.4961V99.37C161.632 99.38 161.381 99.403 161.127 99.3987C160.316 99.3829 159.603 99.1117 158.923 98.7631C158.066 98.3197 157.25 97.8193 156.484 97.2666C155.519 96.5818 154.655 95.7988 153.912 94.9351C152.743 93.5614 151.91 91.9997 151.465 90.3437C151.223 89.4737 151.069 88.5876 151.003 87.6951C150.973 87.2776 150.96 86.8587 150.938 86.4411C150.938 86.3995 150.925 86.3579 150.92 86.3163L150.911 78.656Z" fill="#E094FF"/>
<path d="M167.663 90.004L167.534 89.9352C166.438 89.2709 165.333 88.6166 164.249 87.9394C163.604 87.5391 163.074 87.0512 162.834 86.374C162.638 85.805 162.598 85.205 162.718 84.6207C162.82 84.1056 163.201 83.7512 163.656 83.4385C164.338 82.9679 165.009 82.4872 165.694 82.0195C166.092 81.7469 166.181 81.3896 166.154 80.9807C166.134 80.6825 166.036 80.392 165.865 80.1313C165.695 79.8705 165.457 79.6463 165.17 79.4756C164.636 79.1121 164.027 78.8371 163.374 78.6649C163.275 78.6391 163.171 78.6291 163.074 78.6018C163.039 78.5918 162.988 78.553 162.988 78.5272C162.988 77.9131 162.988 77.299 162.988 76.662C163.139 76.7036 163.277 76.7323 163.405 76.7782C164.987 77.3521 166.272 78.2288 167.081 79.5516C167.369 80.0458 167.55 80.5806 167.615 81.1299C167.679 81.6033 167.691 82.0809 167.648 82.5561C167.623 82.8391 167.526 83.1139 167.364 83.3617C167.202 83.6094 166.978 83.8241 166.71 83.9908C166.105 84.3955 165.486 84.7843 164.873 85.1817C164.665 85.3166 164.457 85.45 164.254 85.5906C164.214 85.6175 164.182 85.651 164.158 85.6892C164.134 85.7273 164.12 85.7693 164.116 85.8124C164.112 85.8555 164.118 85.8988 164.135 85.9396C164.151 85.9805 164.178 86.018 164.212 86.0498C164.31 86.1391 164.42 86.2194 164.538 86.2894C165.538 86.8968 166.54 87.5018 167.544 88.1044C167.588 88.1265 167.623 88.1584 167.647 88.1966C167.67 88.2348 167.681 88.2779 167.678 88.321C167.678 88.8361 167.678 89.3512 167.678 89.8663C167.672 89.9065 167.667 89.9466 167.663 90.004Z" fill="#E094FF"/>
<path opacity="0.57" d="M50 84.2944L137.832 121.405V199.311L50 163.582V84.2944Z" fill="#8F39FF"/>
<path d="M106.272 161.932C106.633 160.818 104.367 139.358 104.367 139.358L74.7965 139.539L70.835 121.502L81.1366 102.289L121.207 90.4278L149.911 102.645L169.392 123.449L168.146 143.602L151.951 148.823L132.796 146.097L106.272 161.932Z" fill="#E094FF"/>
<path d="M105.557 162.794L105.867 161.835C106.104 160.974 104.884 148.265 103.984 139.717L74.4403 139.904L70.3965 121.459L80.8291 102.003L80.997 101.953L121.232 90.0372L121.39 90.1046L150.176 102.358L150.233 102.419L169.814 123.33V123.473L168.554 143.862L151.999 149.193L132.902 146.48L105.557 162.794ZM104.751 138.995L104.785 139.323C104.996 141.316 106.675 157.326 106.722 161.224L132.695 145.728L151.909 148.454L167.74 143.355L168.962 123.572L149.641 102.937L121.178 90.8206L81.4435 102.586L71.271 121.555L75.1453 139.187L104.751 138.995Z" fill="white"/>
<path d="M103.004 141.091L111.924 113.952L90.8621 124.168L76.0903 138.239L75.4658 137.759L90.335 123.601L90.3938 123.572L112.253 112.971L119.048 92.3098L119.855 92.5035L113.252 112.59L147.977 103.036L135.572 126.613L103.004 141.091ZM112.961 113.448L104.336 139.689L134.921 126.085L146.431 104.206L113.119 113.372L112.961 113.448Z" fill="white"/>
<path d="M148.848 145.801L135.51 127.895C134.789 133.892 133.843 142.63 134.046 143.339L133.255 143.58C132.888 142.749 134.343 130.524 134.798 126.793L134.924 125.77L149.556 145.412L148.848 145.801Z" fill="white"/>
<path d="M163.018 140.959L135.093 126.329L164.704 122.987L164.813 123.699L137.552 126.775L163.458 140.348L163.018 140.959Z" fill="white"/>
<path d="M131.242 125.459L112.741 113.358L82.8613 103.149L83.1719 102.483L113.159 112.728L113.206 112.758L131.753 124.889L131.242 125.459Z" fill="white"/>
<path d="M102.904 137.89L92.5466 124.178L92.5348 124.156L81.6523 104.436L82.4111 104.131L93.2835 123.829L103.609 137.5L102.904 137.89Z" fill="white"/>
<path d="M73.2874 121.24L73.1748 121.951L87.8963 123.655L88.0089 122.944L73.2874 121.24Z" fill="white"/>
<path d="M108.301 140.196L108.104 140.893L126.152 144.616L126.349 143.919L108.301 140.196Z" fill="white"/>
<path d="M113.073 119.158C116.87 119.158 119.949 116.527 119.949 113.282C119.949 110.036 116.87 107.405 113.073 107.405C109.276 107.405 106.197 110.036 106.197 113.282C106.197 116.527 109.276 119.158 113.073 119.158Z" fill="white"/>
<path d="M135.519 133.413C139.316 133.413 142.395 130.782 142.395 127.536C142.395 124.29 139.316 121.659 135.519 121.659C131.722 121.659 128.644 124.29 128.644 127.536C128.644 130.782 131.722 133.413 135.519 133.413Z" fill="white"/>
<path d="M91.2711 129.26C95.0684 129.26 98.1468 126.628 98.1468 123.383C98.1468 120.137 95.0684 117.506 91.2711 117.506C87.4738 117.506 84.3955 120.137 84.3955 123.383C84.3955 126.628 87.4738 129.26 91.2711 129.26Z" fill="white"/>
<path d="M121.207 96.3101C125.004 96.3101 128.082 93.679 128.082 90.4333C128.082 87.1876 125.004 84.5564 121.207 84.5564C117.409 84.5564 114.331 87.1876 114.331 90.4333C114.331 93.679 117.409 96.3101 121.207 96.3101Z" fill="white"/>
<path d="M147.009 108.106C150.807 108.106 153.885 105.475 153.885 102.229C153.885 98.9834 150.807 96.3522 147.009 96.3522C143.212 96.3522 140.134 98.9834 140.134 102.229C140.134 105.475 143.212 108.106 147.009 108.106Z" fill="white"/>
<path d="M169.001 128.916C172.798 128.916 175.876 126.285 175.876 123.039C175.876 119.794 172.798 117.163 169.001 117.163C165.203 117.163 162.125 119.794 162.125 123.039C162.125 126.285 165.203 128.916 169.001 128.916Z" fill="white"/>
<path d="M168.177 148.718C171.975 148.718 175.053 146.086 175.053 142.841C175.053 139.595 171.975 136.964 168.177 136.964C164.38 136.964 161.302 139.595 161.302 142.841C161.302 146.086 164.38 148.718 168.177 148.718Z" fill="white"/>
<path d="M150.997 154.075C154.794 154.075 157.872 151.444 157.872 148.198C157.872 144.953 154.794 142.321 150.997 142.321C147.199 142.321 144.121 144.953 144.121 148.198C144.121 151.444 147.199 154.075 150.997 154.075Z" fill="white"/>
<path d="M80.8922 108.63C84.6895 108.63 87.7678 105.999 87.7678 102.753C87.7678 99.5074 84.6895 96.8763 80.8922 96.8763C77.0949 96.8763 74.0166 99.5074 74.0166 102.753C74.0166 105.999 77.0949 108.63 80.8922 108.63Z" fill="white"/>
<path d="M104.367 145.234C108.164 145.234 111.242 142.603 111.242 139.357C111.242 136.111 108.164 133.48 104.367 133.48C100.57 133.48 97.4912 136.111 97.4912 139.357C97.4912 142.603 100.57 145.234 104.367 145.234Z" fill="white"/>
<path d="M130.672 150.921C134.469 150.921 137.547 148.29 137.547 145.044C137.547 141.799 134.469 139.167 130.672 139.167C126.874 139.167 123.796 141.799 123.796 145.044C123.796 148.29 126.874 150.921 130.672 150.921Z" fill="white"/>
<path d="M108.418 166.99C112.215 166.99 115.293 164.359 115.293 161.113C115.293 157.867 112.215 155.236 108.418 155.236C104.62 155.236 101.542 157.867 101.542 161.113C101.542 164.359 104.62 166.99 108.418 166.99Z" fill="white"/>
<path d="M75.6412 145.904C79.4386 145.904 82.5169 143.273 82.5169 140.027C82.5169 136.781 79.4386 134.15 75.6412 134.15C71.8439 134.15 68.7656 136.781 68.7656 140.027C68.7656 143.273 71.8439 145.904 75.6412 145.904Z" fill="white"/>
<path d="M70.8336 127.385C74.6309 127.385 77.7093 124.754 77.7093 121.508C77.7093 118.262 74.6309 115.631 70.8336 115.631C67.0363 115.631 63.958 118.262 63.958 121.508C63.958 124.754 67.0363 127.385 70.8336 127.385Z" fill="white"/>
</svg>
