<svg width="250" height="250" viewBox="0 0 250 250" fill="none" xmlns="http://www.w3.org/2000/svg">
<circle cx="125" cy="125" r="124" fill="white" stroke="#9966CD" stroke-width="2" stroke-dasharray="4 4"/>
<path fill-rule="evenodd" clip-rule="evenodd" d="M118.5 134.81C120.98 139.98 128.5 140.17 130.88 134.84C130.23 134.18 129.75 133.48 129.27 132.78C129.19 132.67 129.11 132.55 129.03 132.44C127.88 133.35 126.49 133.93 124.68 133.93C122.72 133.92 121.25 133.18 120.04 132.07C119.97 132 119.9 131.94 119.83 131.87C119.66 132.35 119.44 132.93 119.2 133.46C118.98 133.97 118.74 134.46 118.5 134.81ZM179.51 102.52V144.61H184.53C185.35 144.61 186.03 145.28 186.03 146.1V183.97C186.03 184.79 185.36 185.46 184.53 185.46H65.49C64.67 185.46 64 184.79 64 183.97V146.1C64 145.28 64.67 144.61 65.49 144.61H70.51V101.26C70.01 100.88 69.54 100.47 69.09 100.03C66.66 97.6 65.16 94.25 65.16 90.57V85.37V85.3V85.29C65.16 85.03 65.22 84.77 65.35 84.54L75.88 65.78C76.16 65.28 76.68 65 77.21 65H173.99C174.6 65 175.12 65.35 175.37 65.86L186.66 84.49C186.8 84.71 186.87 84.96 186.88 85.2C186.89 85.25 186.89 85.3 186.89 85.36V90.56C186.89 94.24 185.38 97.59 182.96 100.02C181.94 101.03 180.79 101.87 179.51 102.52ZM167.83 144.61V102.7C166.41 102.03 165.12 101.12 164.03 100.03C163.07 99.07 162.26 97.97 161.62 96.76C160.99 97.97 160.17 99.07 159.21 100.03C156.78 102.46 153.43 103.96 149.75 103.96C146.07 103.96 142.72 102.45 140.29 100.03C139.33 99.07 138.52 97.97 137.88 96.76C137.25 97.97 136.43 99.07 135.47 100.03C133.04 102.46 129.69 103.96 126.01 103.96C122.33 103.96 118.98 102.45 116.55 100.03C115.59 99.07 114.78 97.97 114.14 96.76C113.51 97.97 112.69 99.07 111.73 100.03C109.3 102.46 105.95 103.96 102.27 103.96C98.59 103.96 95.24 102.45 92.81 100.03C91.85 99.07 91.04 97.97 90.4 96.76C89.77 97.97 88.95 99.07 87.99 100.03C86.39 101.63 84.4 102.83 82.17 103.46V144.62H102.15C102.34 142.79 103.38 140.68 104.04 139.8C104.64 139.01 105.38 138.43 106.2 137.97C108.67 136.6 115.08 136.14 117.74 134.28C117.94 133.99 118.15 133.56 118.35 133.1C118.66 132.4 118.93 131.64 119.11 131.12C118.36 130.24 117.73 129.25 117.12 128.28L115.1 125.07C114.36 123.97 113.98 122.96 113.96 122.14C113.95 121.75 114.01 121.4 114.16 121.09C114.31 120.77 114.54 120.49 114.85 120.28C115 120.18 115.16 120.1 115.34 120.03C115.21 118.29 115.16 116.1 115.24 114.26C115.28 113.82 115.37 113.39 115.49 112.95C116.01 111.11 117.3 109.63 118.9 108.61C119.78 108.05 120.75 107.62 121.76 107.34C122.4 107.16 121.67 105.72 122.33 105.65C125.53 105.32 130.26 107.64 132.5 110.06C133.62 111.27 134.32 112.88 134.47 115L134.34 120.24C134.9 120.41 135.26 120.76 135.4 121.34C135.56 121.98 135.39 122.87 134.85 124.1C134.84 124.12 134.83 124.14 134.82 124.17L132.52 127.96C131.68 129.35 130.82 130.75 129.7 131.85C129.8 131.99 129.9 132.14 130 132.29C130.46 132.96 130.91 133.63 131.5 134.22C131.52 134.24 131.54 134.26 131.55 134.28C134.2 136.15 140.64 136.6 143.11 137.98C143.93 138.44 144.67 139.02 145.27 139.81C145.94 140.69 146.97 142.8 147.16 144.63H167.83V144.61ZM69.24 83.84H89.21L92.88 68.05H78.1L69.24 83.84ZM137.73 68.05L139.26 83.84H159.64L155.47 68.05H137.73ZM136.2 83.84L134.68 68.05H117.32L115.82 83.84H136.2ZM112.77 83.84L114.27 68.05H96.01L92.34 83.84H112.77ZM158.62 68.05L162.79 83.84H182.7L173.13 68.05H158.62ZM163.15 86.89V90.56C163.15 93.4 164.31 95.99 166.19 97.86C168.06 99.73 170.65 100.9 173.49 100.9C176.33 100.9 178.92 99.74 180.79 97.86C182.66 95.99 183.83 93.4 183.83 90.56V86.89H163.15ZM139.41 86.89V90.56C139.41 93.4 140.57 95.99 142.45 97.86C144.32 99.73 146.91 100.9 149.75 100.9C152.59 100.9 155.18 99.74 157.05 97.86C158.92 95.99 160.09 93.4 160.09 90.56V86.89H139.41ZM115.68 86.89V90.56C115.68 93.4 116.84 95.99 118.72 97.86C120.59 99.73 123.18 100.9 126.02 100.9C128.86 100.9 131.45 99.74 133.32 97.86C135.19 95.99 136.36 93.4 136.36 90.56V86.89H115.68ZM91.95 86.89V90.56C91.95 93.4 93.11 95.99 94.99 97.86C96.86 99.73 99.45 100.9 102.29 100.9C105.13 100.9 107.72 99.74 109.59 97.86C111.46 95.99 112.63 93.4 112.63 90.56V86.89H91.95ZM88.89 86.89H68.21V90.56C68.21 93.4 69.37 95.99 71.25 97.86C73.12 99.73 75.71 100.9 78.55 100.9C81.39 100.9 83.98 99.74 85.85 97.86C87.72 95.99 88.89 93.4 88.89 90.56V86.89ZM112.29 144.61H137.47L138.15 137.03C136.07 136.62 133.87 136.31 131.56 134.98C130.14 141.23 120.49 142.12 117.71 135.15C115.64 136.19 113.63 136.79 111.23 137.16L112.29 144.61ZM71.07 150.87H178.94C179.42 150.87 179.82 151.27 179.82 151.75V178.34C179.82 178.82 179.42 179.22 178.94 179.22H71.07C70.59 179.22 70.19 178.83 70.19 178.34V151.75C70.2 151.26 70.59 150.87 71.07 150.87ZM116.52 120.96C116.07 120.98 115.73 121.07 115.5 121.23C115.37 121.32 115.27 121.43 115.21 121.57C115.14 121.72 115.11 121.9 115.11 122.11C115.13 122.72 115.45 123.53 116.07 124.45L116.08 124.46L118.1 127.67C118.91 128.96 119.76 130.27 120.81 131.23C121.82 132.16 123.05 132.78 124.68 132.79C126.44 132.79 127.73 132.14 128.77 131.16C129.86 130.14 130.71 128.75 131.56 127.36L133.83 123.62C134.25 122.65 134.41 122.01 134.31 121.63C134.25 121.4 134 121.29 133.58 121.27C133.49 121.27 133.4 121.26 133.3 121.27C133.2 121.27 133.09 121.28 132.98 121.29C132.92 121.3 132.86 121.29 132.8 121.28C132.6 121.29 132.39 121.28 132.18 121.25L132.96 117.81C127.19 118.72 122.87 114.43 116.76 116.95L117.2 121.01C116.97 121 116.74 120.99 116.52 120.96Z" fill="#9966CD"/>
</svg>
